<svg width="152" height="153" viewBox="0 0 152 153" fill="none" xmlns="http://www.w3.org/2000/svg">
<path d="M125.363 147.444H147.759C148.046 147.444 148.239 147.152 148.127 146.888L87.7293 4.30795C87.5918 3.98346 87.1323 3.98239 86.9934 4.30623L29.8633 137.444" stroke="#162867" stroke-width="6" stroke-linecap="round"/>
<path d="M115.072 12.179L147.601 83.8435C147.724 84.1149 147.526 84.4228 147.228 84.4228H100.214M100.214 84.4228L65.7462 3.32379C65.6053 2.99219 65.1359 2.99068 64.9928 3.32136L3.11129 146.359C2.99421 146.63 3.19262 146.932 3.48749 146.932H23.8706M100.214 84.4228L109.217 105.43M109.217 105.43L123.27 138.221M109.217 105.43H88.5325C88.2397 105.43 88.0413 105.728 88.1544 105.998L106.362 149.494M44.8776 105.43H64.7498C65.0443 105.43 65.2427 105.731 65.1263 106.002L46.4147 149.494M39.2416 12.179L8.74232 83.8524C8.62727 84.1228 8.82567 84.4228 9.11948 84.4228H52.3635" stroke="#162867" stroke-width="6.14841" stroke-linecap="round"/>
</svg>
