<svg width="497" height="153" viewBox="0 0 497 153" fill="none" xmlns="http://www.w3.org/2000/svg">
<path d="M125.364 147.444H147.76C148.047 147.444 148.24 147.152 148.128 146.888L87.73 4.30792C87.5925 3.98343 87.133 3.98236 86.9941 4.3062L29.864 137.444" stroke="#162867" stroke-width="6" stroke-linecap="round"/>
<path d="M115.072 12.179L147.601 83.8435C147.724 84.1149 147.526 84.4228 147.228 84.4228H100.214M100.214 84.4228L65.7467 3.32378C65.6058 2.99218 65.1364 2.99067 64.9933 3.32135L3.11175 146.359C2.99467 146.63 3.19308 146.932 3.48795 146.932H23.8711M100.214 84.4228L109.217 105.43M123.27 138.221L109.217 105.43M109.217 105.43H88.533C88.2402 105.43 88.0418 105.728 88.1549 105.998L106.362 149.494M44.8781 105.43H64.7503C65.0448 105.43 65.2432 105.731 65.1268 106.002L46.4152 149.494M39.2421 12.179L8.74278 83.8524C8.62773 84.1228 8.82613 84.4228 9.11994 84.4228H52.364" stroke="#162867" stroke-width="6.14841" stroke-linecap="round"/>
<path d="M188.366 104.626C188.204 104.464 188.123 104.16 188.123 103.715C188.123 103.148 188.204 102.864 188.366 102.864C188.73 102.864 189.216 102.824 189.824 102.743C190.432 102.621 190.999 102.459 191.525 102.257C192.052 102.054 192.356 101.851 192.437 101.649C192.599 101.082 192.7 100.353 192.741 99.4614C192.822 98.5702 192.862 97.4967 192.862 96.2409V74.2444C192.862 70.7201 192.68 68.6339 192.315 67.9857C192.032 67.3781 189.844 67.0742 185.753 67.0742C184.214 67.0742 183.019 67.216 182.168 67.4996C181.317 67.7427 180.669 68.249 180.223 69.0187C179.778 69.7884 179.352 70.9429 178.947 72.4822C178.866 72.6848 178.664 72.7861 178.34 72.7861C177.651 72.7861 177.165 72.6443 176.881 72.3607L178.036 63.6715C178.927 63.874 179.717 64.0361 180.406 64.1576C181.094 64.2791 181.702 64.3399 182.229 64.3399C185.145 64.3399 187.718 64.3804 189.946 64.4614C192.174 64.5424 194.037 64.5829 195.536 64.5829C198.655 64.5829 201.329 64.5424 203.557 64.4614C205.825 64.3804 207.608 64.3399 208.904 64.3399C209.431 64.3399 210.038 64.2791 210.727 64.1576C211.416 64.0361 212.205 63.874 213.097 63.6715L214.251 72.3607C213.968 72.6443 213.481 72.7861 212.793 72.7861C212.469 72.7861 212.266 72.6848 212.185 72.4822C211.821 70.9429 211.395 69.7884 210.909 69.0187C210.464 68.249 209.815 67.7427 208.965 67.4996C208.114 67.216 206.919 67.0742 205.38 67.0742C201.126 67.0742 198.898 67.3781 198.696 67.9857C198.331 69.2415 198.149 71.267 198.149 74.0621V95.9979C198.149 98.3474 198.331 100.231 198.696 101.649C198.777 101.811 199.08 101.993 199.607 102.196C200.134 102.398 200.701 102.56 201.308 102.682C201.916 102.803 202.341 102.864 202.585 102.864C202.747 102.864 202.828 103.168 202.828 103.776C202.828 104.019 202.787 104.302 202.706 104.626C200.681 104.545 199.08 104.485 197.906 104.444C196.731 104.363 195.981 104.323 195.657 104.323L188.366 104.626ZM212.428 104.626C212.266 104.464 212.185 104.16 212.185 103.715C212.185 103.148 212.266 102.864 212.428 102.864C212.914 102.864 213.542 102.763 214.312 102.56C215.082 102.358 215.608 102.074 215.892 101.71C216.337 101.143 216.783 100.393 217.229 99.4614C217.715 98.5297 218.221 97.3752 218.748 95.9979L229.321 68.8364C229.564 68.2288 229.705 67.8034 229.746 67.5604C229.827 67.3173 229.888 67.1148 229.928 66.9527C230.009 66.7502 230.151 66.4261 230.354 65.9805C230.637 65.4134 230.921 64.9678 231.204 64.6437C231.488 64.3196 231.954 64.1576 232.602 64.1576L233.149 64.3399L245.302 96.4232C245.666 97.3549 245.99 98.1854 246.274 98.9145C246.598 99.6437 246.861 100.272 247.064 100.798C247.226 101.203 247.57 101.568 248.097 101.892C248.664 102.176 249.231 102.419 249.798 102.621C250.406 102.783 250.872 102.864 251.196 102.864C251.358 102.864 251.439 103.249 251.439 104.019C251.439 104.1 251.418 104.201 251.378 104.323C251.378 104.404 251.358 104.505 251.317 104.626C249.292 104.545 247.712 104.485 246.578 104.444C245.484 104.363 244.836 104.323 244.633 104.323L237.585 104.626C237.422 104.464 237.341 104.14 237.341 103.654C237.382 103.127 237.483 102.864 237.645 102.864C238.131 102.864 238.739 102.763 239.468 102.56C240.197 102.358 240.623 102.095 240.744 101.77C240.785 101.608 240.805 101.446 240.805 101.284C240.845 101.122 240.866 100.96 240.866 100.798C240.866 100.272 240.805 99.6639 240.683 98.9753C240.562 98.2461 240.42 97.679 240.258 97.2739L237.524 89.7392C237.402 89.5771 237.281 89.4961 237.159 89.4961C235.579 89.3746 234.04 89.3138 232.541 89.3138C231.488 89.3138 230.313 89.3543 229.017 89.4354C227.761 89.4759 226.363 89.5366 224.824 89.6176L224.52 89.7999L221.907 96.484C221.502 97.4967 221.219 98.3474 221.057 99.0361C220.935 99.7247 220.874 100.272 220.874 100.677C220.874 101.244 221.036 101.649 221.361 101.892C221.725 102.176 222.313 102.419 223.123 102.621C223.933 102.783 224.52 102.864 224.885 102.864C225.006 102.864 225.067 103.107 225.067 103.593C225.108 104.079 225.087 104.424 225.006 104.626L218.748 104.323C217.613 104.241 216.499 104.262 215.406 104.383C214.352 104.464 213.36 104.545 212.428 104.626ZM230.414 86.3972C232.237 86.3972 234.08 86.3364 235.944 86.2149L236.126 85.9111L231.204 72.4822L225.979 86.0326C225.979 86.1946 226.019 86.2756 226.1 86.2756C227.153 86.3161 228.024 86.3567 228.713 86.3972C229.442 86.3972 230.009 86.3972 230.414 86.3972ZM291.421 104.748C285.791 104.748 280.869 101.831 276.656 95.9979C276.332 95.5523 275.906 94.9446 275.38 94.1749C274.894 93.4053 273.982 92.0482 272.645 90.1038C271.997 89.172 271.41 88.4024 270.883 87.7947C270.397 87.1466 269.81 86.6605 269.121 86.3364C268.473 86.0123 267.582 85.8503 266.447 85.8503C266.002 85.8503 265.637 85.9111 265.354 86.0326C265.111 86.1541 264.989 86.4377 264.989 86.8833V95.8156C264.989 98.4892 265.151 100.251 265.475 101.102C265.637 101.426 266.022 101.73 266.63 102.013C267.278 102.297 267.966 102.52 268.696 102.682C269.425 102.803 269.951 102.864 270.275 102.864C270.438 102.864 270.519 103.148 270.519 103.715C270.519 103.998 270.478 104.302 270.397 104.626C268.372 104.545 266.69 104.464 265.354 104.383C264.057 104.302 263.105 104.282 262.498 104.323L255.085 104.626C254.963 104.505 254.902 104.14 254.902 103.533C254.902 103.006 254.963 102.743 255.085 102.743C255.49 102.743 255.976 102.682 256.543 102.56C257.15 102.439 257.718 102.297 258.244 102.135C258.811 101.932 259.156 101.71 259.277 101.467C259.561 101.021 259.703 99.1171 259.703 95.7548V72.7861C259.703 71.6113 259.662 70.5783 259.581 69.6871C259.541 68.7959 259.439 68.087 259.277 67.5604C259.196 67.3173 258.872 67.0945 258.305 66.892C257.778 66.6894 257.191 66.5274 256.543 66.4058C255.935 66.2843 255.449 66.2236 255.085 66.2236C254.922 66.2236 254.841 65.9805 254.841 65.4944C254.841 64.9678 254.922 64.6234 255.085 64.4614L262.376 64.5829C263.551 64.6234 264.989 64.6032 266.69 64.5222C268.392 64.4006 269.81 64.3399 270.944 64.3399C273.131 64.3399 275.218 64.7652 277.203 65.6159C279.228 66.4666 280.869 67.7224 282.124 69.3833C283.421 71.0442 284.069 73.0696 284.069 75.4597C284.069 77.1611 283.421 78.9435 282.124 80.8069C280.869 82.6703 279.147 84.1084 276.96 85.1211C276.554 85.2832 276.433 85.4857 276.595 85.7288C278.58 89.9417 280.909 93.5065 283.583 96.4232C287.472 100.677 290.631 102.803 293.062 102.803C293.183 103.046 293.244 103.33 293.244 103.654C293.244 104.019 293.183 104.323 293.062 104.566C292.657 104.687 292.11 104.748 291.421 104.748ZM270.275 83.2374H271.795C272.767 83.2374 273.759 82.9134 274.772 82.2652C275.825 81.6171 276.696 80.7056 277.385 79.5308C278.114 78.3561 278.479 76.999 278.479 75.4597C278.479 69.8289 275.643 67.0135 269.972 67.0135C268.108 67.0135 266.69 67.1553 265.718 67.4388C265.354 67.5198 265.131 68.1883 265.05 69.444C265.009 70.6593 264.989 72.2189 264.989 74.1229V81.4753C264.989 82.6501 266.751 83.2374 270.275 83.2374ZM294.095 104.626C293.933 104.464 293.852 104.16 293.852 103.715C293.852 103.148 293.933 102.864 294.095 102.864C294.581 102.864 295.209 102.763 295.979 102.56C296.748 102.358 297.275 102.074 297.558 101.71C298.004 101.143 298.45 100.393 298.895 99.4614C299.381 98.5297 299.888 97.3752 300.414 95.9979L310.987 68.8364C311.23 68.2288 311.372 67.8034 311.413 67.5604C311.494 67.3173 311.554 67.1148 311.595 66.9527C311.676 66.7502 311.818 66.4261 312.02 65.9805C312.304 65.4134 312.587 64.9678 312.871 64.6437C313.155 64.3196 313.62 64.1576 314.269 64.1576L314.815 64.3399L326.968 96.4232C327.333 97.3549 327.657 98.1854 327.94 98.9145C328.264 99.6437 328.528 100.272 328.73 100.798C328.892 101.203 329.237 101.568 329.763 101.892C330.33 102.176 330.898 102.419 331.465 102.621C332.072 102.783 332.538 102.864 332.862 102.864C333.024 102.864 333.105 103.249 333.105 104.019C333.105 104.1 333.085 104.201 333.045 104.323C333.045 104.404 333.024 104.505 332.984 104.626C330.958 104.545 329.378 104.485 328.244 104.444C327.15 104.363 326.502 104.323 326.3 104.323L319.251 104.626C319.089 104.464 319.008 104.14 319.008 103.654C319.049 103.127 319.15 102.864 319.312 102.864C319.798 102.864 320.406 102.763 321.135 102.56C321.864 102.358 322.289 102.095 322.411 101.77C322.451 101.608 322.472 101.446 322.472 101.284C322.512 101.122 322.532 100.96 322.532 100.798C322.532 100.272 322.472 99.6639 322.35 98.9753C322.229 98.2461 322.087 97.679 321.925 97.2739L319.19 89.7392C319.069 89.5771 318.947 89.4961 318.826 89.4961C317.246 89.3746 315.707 89.3138 314.208 89.3138C313.155 89.3138 311.98 89.3543 310.683 89.4354C309.428 89.4759 308.03 89.5366 306.491 89.6176L306.187 89.7999L303.574 96.484C303.169 97.4967 302.885 98.3474 302.723 99.0361C302.602 99.7247 302.541 100.272 302.541 100.677C302.541 101.244 302.703 101.649 303.027 101.892C303.392 102.176 303.979 102.419 304.789 102.621C305.6 102.783 306.187 102.864 306.552 102.864C306.673 102.864 306.734 103.107 306.734 103.593C306.774 104.079 306.754 104.424 306.673 104.626L300.414 104.323C299.28 104.241 298.166 104.262 297.072 104.383C296.019 104.464 295.027 104.545 294.095 104.626ZM312.081 86.3972C313.904 86.3972 315.747 86.3364 317.611 86.2149L317.793 85.9111L312.871 72.4822L307.645 86.0326C307.645 86.1946 307.686 86.2756 307.767 86.2756C308.82 86.3161 309.691 86.3567 310.38 86.3972C311.109 86.3972 311.676 86.3972 312.081 86.3972ZM369.078 104.991C368.794 104.991 368.591 104.869 368.47 104.626L356.013 73.2114C355.001 70.5378 354.089 68.5933 353.279 67.3781C352.995 66.9325 352.408 66.5881 351.517 66.3451C350.626 66.102 349.917 65.9805 349.39 65.9805C349.228 65.9805 349.147 65.7172 349.147 65.1906C349.147 64.7045 349.228 64.3804 349.39 64.2183C350.362 64.2589 351.456 64.3196 352.671 64.4006C353.887 64.4817 355.122 64.5222 356.378 64.5222C356.864 64.5222 357.735 64.5019 358.991 64.4614C360.247 64.3804 361.887 64.2994 363.913 64.2183C363.994 64.3804 364.014 64.7247 363.973 65.2513C363.973 65.7374 363.913 65.9805 363.791 65.9805C363.021 65.9805 362.231 66.1425 361.421 66.4666C360.611 66.7907 360.206 67.297 360.206 67.9857C360.206 69.1605 362.758 75.9863 367.862 88.4631C368.429 89.8405 368.916 91.076 369.321 92.1697C369.766 93.223 370.151 94.1344 370.475 94.9041C370.597 95.1067 370.759 95.1674 370.961 95.0864C371.204 94.9649 371.366 94.8028 371.447 94.6003L380.562 72.6038C381.332 70.6593 381.716 69.2415 381.716 68.3503C381.716 67.7427 381.453 67.2768 380.927 66.9527C380.4 66.5881 379.792 66.3451 379.104 66.2236C378.455 66.0615 377.909 65.9805 377.463 65.9805C377.301 65.9805 377.22 65.7172 377.22 65.1906C377.22 64.7045 377.301 64.3804 377.463 64.2183C379.367 64.2994 380.845 64.3804 381.899 64.4614C382.992 64.5019 383.681 64.5222 383.965 64.5222L390.102 64.2183C390.183 64.5424 390.223 64.8462 390.223 65.1298C390.223 65.6969 390.142 65.9805 389.98 65.9805C388.157 65.9805 386.942 66.5476 386.334 67.6819C385.889 68.5326 385.403 69.4845 384.876 70.5378C384.39 71.5505 383.884 72.6848 383.357 73.9406L371.204 102.986C370.678 104.323 369.969 104.991 369.078 104.991ZM385.362 104.626C385.2 104.464 385.119 104.16 385.119 103.715C385.119 103.148 385.2 102.864 385.362 102.864C385.848 102.864 386.476 102.763 387.246 102.56C388.016 102.358 388.542 102.074 388.826 101.71C389.271 101.143 389.717 100.393 390.163 99.4614C390.649 98.5297 391.155 97.3752 391.682 95.9979L402.255 68.8364C402.498 68.2288 402.639 67.8034 402.68 67.5604C402.761 67.3173 402.822 67.1148 402.862 66.9527C402.943 66.7502 403.085 66.4261 403.288 65.9805C403.571 65.4134 403.855 64.9678 404.138 64.6437C404.422 64.3196 404.888 64.1576 405.536 64.1576L406.083 64.3399L418.236 96.4232C418.6 97.3549 418.924 98.1854 419.208 98.9145C419.532 99.6437 419.795 100.272 419.998 100.798C420.16 101.203 420.504 101.568 421.031 101.892C421.598 102.176 422.165 102.419 422.732 102.621C423.34 102.783 423.806 102.864 424.13 102.864C424.292 102.864 424.373 103.249 424.373 104.019C424.373 104.1 424.352 104.201 424.312 104.323C424.312 104.404 424.292 104.505 424.251 104.626C422.226 104.545 420.646 104.485 419.512 104.444C418.418 104.363 417.77 104.323 417.567 104.323L410.519 104.626C410.356 104.464 410.275 104.14 410.275 103.654C410.316 103.127 410.417 102.864 410.579 102.864C411.065 102.864 411.673 102.763 412.402 102.56C413.131 102.358 413.557 102.095 413.678 101.77C413.719 101.608 413.739 101.446 413.739 101.284C413.78 101.122 413.8 100.96 413.8 100.798C413.8 100.272 413.739 99.6639 413.617 98.9753C413.496 98.2461 413.354 97.679 413.192 97.2739L410.458 89.7392C410.336 89.5771 410.215 89.4961 410.093 89.4961C408.513 89.3746 406.974 89.3138 405.475 89.3138C404.422 89.3138 403.247 89.3543 401.951 89.4354C400.695 89.4759 399.297 89.5366 397.758 89.6176L397.454 89.7999L394.841 96.484C394.436 97.4967 394.153 98.3474 393.991 99.0361C393.869 99.7247 393.808 100.272 393.808 100.677C393.808 101.244 393.97 101.649 394.295 101.892C394.659 102.176 395.247 102.419 396.057 102.621C396.867 102.783 397.454 102.864 397.819 102.864C397.94 102.864 398.001 103.107 398.001 103.593C398.042 104.079 398.021 104.424 397.94 104.626L391.682 104.323C390.547 104.241 389.433 104.262 388.34 104.383C387.286 104.464 386.294 104.545 385.362 104.626ZM403.348 86.3972C405.171 86.3972 407.014 86.3364 408.878 86.2149L409.06 85.9111L404.138 72.4822L398.913 86.0326C398.913 86.1946 398.953 86.2756 399.034 86.2756C400.087 86.3161 400.958 86.3567 401.647 86.3972C402.376 86.3972 402.943 86.3972 403.348 86.3972ZM440.414 105.052C439.442 105.052 438.409 104.971 437.315 104.809C436.222 104.687 435.31 104.545 434.581 104.383C433.082 104.1 431.988 103.877 431.3 103.715C430.652 103.512 430.044 103.371 429.477 103.29C428.95 100.778 428.565 98.7322 428.322 97.1524C428.079 95.532 427.958 94.3572 427.958 93.6281C427.958 93.385 428.282 93.2635 428.93 93.2635C429.659 93.2635 430.166 93.4458 430.449 93.8104C431.867 99.6437 435.229 102.56 440.536 102.56C442.561 102.56 444.283 101.953 445.701 100.737C447.119 99.5222 447.828 97.8005 447.828 95.5725C447.828 94.8433 447.666 93.9521 447.341 92.8989C447.058 91.8457 446.389 90.9342 445.336 90.1645C444.526 89.5569 443.858 89.1113 443.331 88.8277C442.804 88.5036 442.278 88.2201 441.751 87.977C441.225 87.6935 440.556 87.3086 439.746 86.8225L437.315 85.3642C436.06 84.5945 434.804 83.7236 433.548 82.7513C432.292 81.7386 431.239 80.5638 430.388 79.227C429.578 77.8902 429.173 76.3711 429.173 74.6697C429.173 72.5227 429.72 70.6593 430.814 69.0795C431.948 67.4591 433.406 66.2033 435.189 65.3121C437.012 64.4209 438.976 63.9753 441.083 63.9753C441.974 63.9753 442.804 64.0361 443.574 64.1576C444.384 64.2386 445.053 64.3399 445.579 64.4614C446.795 64.745 447.645 64.9678 448.131 65.1298C448.658 65.2918 449.367 65.4741 450.258 65.6767C450.744 67.7832 450.987 70.6796 450.987 74.3659C450.987 74.6495 450.785 74.7913 450.38 74.7913C449.367 74.7913 448.84 74.5887 448.8 74.1836C448.597 72.9683 448.152 71.7733 447.463 70.5986C446.774 69.4238 445.843 68.4516 444.668 67.6819C443.493 66.8717 442.095 66.4666 440.475 66.4666C438.814 66.4666 437.518 66.7907 436.586 67.4388C435.655 68.0465 434.986 68.8364 434.581 69.8086C434.216 70.7403 434.034 71.7328 434.034 72.7861C434.034 73.7988 434.277 74.8115 434.763 75.8242C435.249 76.837 435.958 77.6877 436.89 78.3763C438.146 79.308 439.402 80.179 440.657 80.9892C441.954 81.7994 443.291 82.6298 444.668 83.4805C445.964 84.2907 447.26 85.2021 448.557 86.2149C449.853 87.1871 450.927 88.3011 451.777 89.5569C452.668 90.8127 453.114 92.271 453.114 93.9319C453.114 96.0789 452.527 98.0031 451.352 99.7045C450.177 101.365 448.617 102.682 446.673 103.654C444.769 104.586 442.683 105.052 440.414 105.052ZM456.76 104.626C456.598 104.464 456.517 104.16 456.517 103.715C456.517 103.148 456.598 102.864 456.76 102.864C457.246 102.864 457.874 102.763 458.644 102.56C459.413 102.358 459.94 102.074 460.223 101.71C460.669 101.143 461.115 100.393 461.56 99.4614C462.046 98.5297 462.553 97.3752 463.079 95.9979L473.652 68.8364C473.895 68.2288 474.037 67.8034 474.078 67.5604C474.159 67.3173 474.219 67.1148 474.26 66.9527C474.341 66.7502 474.483 66.4261 474.685 65.9805C474.969 65.4134 475.252 64.9678 475.536 64.6437C475.819 64.3196 476.285 64.1576 476.933 64.1576L477.48 64.3399L489.633 96.4232C489.998 97.3549 490.322 98.1854 490.605 98.9145C490.929 99.6437 491.193 100.272 491.395 100.798C491.557 101.203 491.902 101.568 492.428 101.892C492.995 102.176 493.563 102.419 494.13 102.621C494.737 102.783 495.203 102.864 495.527 102.864C495.689 102.864 495.77 103.249 495.77 104.019C495.77 104.1 495.75 104.201 495.709 104.323C495.709 104.404 495.689 104.505 495.649 104.626C493.623 104.545 492.043 104.485 490.909 104.444C489.815 104.363 489.167 104.323 488.965 104.323L481.916 104.626C481.754 104.464 481.673 104.14 481.673 103.654C481.714 103.127 481.815 102.864 481.977 102.864C482.463 102.864 483.071 102.763 483.8 102.56C484.529 102.358 484.954 102.095 485.076 101.77C485.116 101.608 485.137 101.446 485.137 101.284C485.177 101.122 485.197 100.96 485.197 100.798C485.197 100.272 485.137 99.6639 485.015 98.9753C484.894 98.2461 484.752 97.679 484.59 97.2739L481.855 89.7392C481.734 89.5771 481.612 89.4961 481.491 89.4961C479.911 89.3746 478.372 89.3138 476.873 89.3138C475.819 89.3138 474.645 89.3543 473.348 89.4354C472.093 89.4759 470.695 89.5366 469.156 89.6176L468.852 89.7999L466.239 96.484C465.834 97.4967 465.55 98.3474 465.388 99.0361C465.267 99.7247 465.206 100.272 465.206 100.677C465.206 101.244 465.368 101.649 465.692 101.892C466.057 102.176 466.644 102.419 467.454 102.621C468.264 102.783 468.852 102.864 469.216 102.864C469.338 102.864 469.399 103.107 469.399 103.593C469.439 104.079 469.419 104.424 469.338 104.626L463.079 104.323C461.945 104.241 460.831 104.262 459.737 104.383C458.684 104.464 457.692 104.545 456.76 104.626ZM474.746 86.3972C476.569 86.3972 478.412 86.3364 480.275 86.2149L480.458 85.9111L475.536 72.4822L470.31 86.0326C470.31 86.1946 470.351 86.2756 470.432 86.2756C471.485 86.3161 472.356 86.3567 473.045 86.3972C473.774 86.3972 474.341 86.3972 474.746 86.3972Z" fill="#162867"/>
</svg>
