<svg width="497" height="153" viewBox="0 0 497 153" fill="none" xmlns="http://www.w3.org/2000/svg">
<path d="M125.364 147.444H147.76C148.047 147.444 148.24 147.152 148.128 146.888L87.73 4.30792C87.5925 3.98343 87.133 3.98236 86.9941 4.3062L29.864 137.444" stroke="#162867" stroke-width="6" stroke-linecap="round"/>
<path d="M115.072 12.179L147.601 83.8435C147.724 84.1149 147.526 84.4228 147.228 84.4228H100.214M100.214 84.4228L65.7467 3.32378C65.6058 2.99218 65.1364 2.99067 64.9933 3.32135L3.11175 146.359C2.99467 146.63 3.19308 146.932 3.48795 146.932H23.8711M100.214 84.4228L109.217 105.43M123.27 138.221L109.217 105.43M109.217 105.43H88.533C88.2402 105.43 88.0418 105.728 88.1549 105.998L106.362 149.494M44.8781 105.43H64.7503C65.0448 105.43 65.2432 105.731 65.1268 106.002L46.4152 149.494M39.2421 12.179L8.74278 83.8524C8.62773 84.1228 8.82613 84.4228 9.11994 84.4228H52.364" stroke="#162867" stroke-width="6.14841" stroke-linecap="round"/>
<path d="M188.366 85.6263C188.204 85.4643 188.123 85.1605 188.123 84.7149C188.123 84.1477 188.204 83.8642 188.366 83.8642C188.73 83.8642 189.216 83.8237 189.824 83.7426C190.432 83.6211 190.999 83.4591 191.525 83.2565C192.052 83.054 192.356 82.8514 192.437 82.6489C192.599 82.0818 192.7 81.3526 192.741 80.4614C192.822 79.5702 192.862 78.4967 192.862 77.2409V55.2444C192.862 51.7201 192.68 49.6339 192.315 48.9857C192.032 48.3781 189.844 48.0742 185.753 48.0742C184.214 48.0742 183.019 48.216 182.168 48.4996C181.317 48.7427 180.669 49.249 180.223 50.0187C179.778 50.7884 179.352 51.9429 178.947 53.4822C178.866 53.6848 178.664 53.7861 178.34 53.7861C177.651 53.7861 177.165 53.6443 176.881 53.3607L178.036 44.6715C178.927 44.874 179.717 45.0361 180.406 45.1576C181.094 45.2791 181.702 45.3399 182.229 45.3399C185.145 45.3399 187.718 45.3804 189.946 45.4614C192.174 45.5424 194.037 45.5829 195.536 45.5829C198.655 45.5829 201.329 45.5424 203.557 45.4614C205.825 45.3804 207.608 45.3399 208.904 45.3399C209.431 45.3399 210.038 45.2791 210.727 45.1576C211.416 45.0361 212.205 44.874 213.097 44.6715L214.251 53.3607C213.968 53.6443 213.481 53.7861 212.793 53.7861C212.469 53.7861 212.266 53.6848 212.185 53.4822C211.821 51.9429 211.395 50.7884 210.909 50.0187C210.464 49.249 209.815 48.7427 208.965 48.4996C208.114 48.216 206.919 48.0742 205.38 48.0742C201.126 48.0742 198.898 48.3781 198.696 48.9857C198.331 50.2415 198.149 52.267 198.149 55.0621V76.9979C198.149 79.3474 198.331 81.2311 198.696 82.6489C198.777 82.8109 199.08 82.9932 199.607 83.1958C200.134 83.3983 200.701 83.5604 201.308 83.6819C201.916 83.8034 202.341 83.8642 202.585 83.8642C202.747 83.8642 202.828 84.168 202.828 84.7756C202.828 85.0187 202.787 85.3023 202.706 85.6263C200.681 85.5453 199.08 85.4845 197.906 85.444C196.731 85.363 195.981 85.3225 195.657 85.3225L188.366 85.6263ZM212.428 85.6263C212.266 85.4643 212.185 85.1605 212.185 84.7149C212.185 84.1477 212.266 83.8642 212.428 83.8642C212.914 83.8642 213.542 83.7629 214.312 83.5604C215.082 83.3578 215.608 83.0742 215.892 82.7097C216.337 82.1425 216.783 81.3931 217.229 80.4614C217.715 79.5297 218.221 78.3752 218.748 76.9979L229.321 49.8364C229.564 49.2288 229.705 48.8034 229.746 48.5604C229.827 48.3173 229.888 48.1148 229.928 47.9527C230.009 47.7502 230.151 47.4261 230.354 46.9805C230.637 46.4134 230.921 45.9678 231.204 45.6437C231.488 45.3196 231.954 45.1576 232.602 45.1576L233.149 45.3399L245.302 77.4232C245.666 78.3549 245.99 79.1854 246.274 79.9145C246.598 80.6437 246.861 81.2716 247.064 81.7982C247.226 82.2033 247.57 82.5679 248.097 82.892C248.664 83.1755 249.231 83.4186 249.798 83.6211C250.406 83.7832 250.872 83.8642 251.196 83.8642C251.358 83.8642 251.439 84.249 251.439 85.0187C251.439 85.0997 251.418 85.201 251.378 85.3225C251.378 85.4035 251.358 85.5048 251.317 85.6263C249.292 85.5453 247.712 85.4845 246.578 85.444C245.484 85.363 244.836 85.3225 244.633 85.3225L237.585 85.6263C237.422 85.4643 237.341 85.1402 237.341 84.6541C237.382 84.1275 237.483 83.8642 237.645 83.8642C238.131 83.8642 238.739 83.7629 239.468 83.5604C240.197 83.3578 240.623 83.0945 240.744 82.7704C240.785 82.6084 240.805 82.4464 240.805 82.2843C240.845 82.1223 240.866 81.9602 240.866 81.7982C240.866 81.2716 240.805 80.6639 240.683 79.9753C240.562 79.2461 240.42 78.679 240.258 78.2739L237.524 70.7392C237.402 70.5771 237.281 70.4961 237.159 70.4961C235.579 70.3746 234.04 70.3138 232.541 70.3138C231.488 70.3138 230.313 70.3543 229.017 70.4354C227.761 70.4759 226.363 70.5366 224.824 70.6176L224.52 70.7999L221.907 77.484C221.502 78.4967 221.219 79.3474 221.057 80.0361C220.935 80.7247 220.874 81.2716 220.874 81.6767C220.874 82.2438 221.036 82.6489 221.361 82.892C221.725 83.1755 222.313 83.4186 223.123 83.6211C223.933 83.7832 224.52 83.8642 224.885 83.8642C225.006 83.8642 225.067 84.1072 225.067 84.5933C225.108 85.0795 225.087 85.4238 225.006 85.6263L218.748 85.3225C217.613 85.2415 216.499 85.2617 215.406 85.3833C214.352 85.4643 213.36 85.5453 212.428 85.6263ZM230.414 67.3972C232.237 67.3972 234.08 67.3364 235.944 67.2149L236.126 66.9111L231.204 53.4822L225.979 67.0326C225.979 67.1946 226.019 67.2756 226.1 67.2756C227.153 67.3161 228.024 67.3567 228.713 67.3972C229.442 67.3972 230.009 67.3972 230.414 67.3972ZM291.421 85.7479C285.791 85.7479 280.869 82.8312 276.656 76.9979C276.332 76.5523 275.906 75.9446 275.38 75.1749C274.894 74.4053 273.982 73.0482 272.645 71.1038C271.997 70.172 271.41 69.4024 270.883 68.7947C270.397 68.1466 269.81 67.6605 269.121 67.3364C268.473 67.0123 267.582 66.8503 266.447 66.8503C266.002 66.8503 265.637 66.9111 265.354 67.0326C265.111 67.1541 264.989 67.4377 264.989 67.8833V76.8156C264.989 79.4892 265.151 81.2513 265.475 82.102C265.637 82.4261 266.022 82.7299 266.63 83.0135C267.278 83.297 267.966 83.5198 268.696 83.6819C269.425 83.8034 269.951 83.8642 270.275 83.8642C270.438 83.8642 270.519 84.1477 270.519 84.7149C270.519 84.9984 270.478 85.3023 270.397 85.6263C268.372 85.5453 266.69 85.4643 265.354 85.3833C264.057 85.3023 263.105 85.282 262.498 85.3225L255.085 85.6263C254.963 85.5048 254.902 85.1402 254.902 84.5326C254.902 84.006 254.963 83.7426 255.085 83.7426C255.49 83.7426 255.976 83.6819 256.543 83.5604C257.15 83.4388 257.718 83.297 258.244 83.135C258.811 82.9325 259.156 82.7097 259.277 82.4666C259.561 82.021 259.703 80.1171 259.703 76.7548V53.7861C259.703 52.6113 259.662 51.5783 259.581 50.6871C259.541 49.7959 259.439 49.087 259.277 48.5604C259.196 48.3173 258.872 48.0945 258.305 47.892C257.778 47.6894 257.191 47.5274 256.543 47.4058C255.935 47.2843 255.449 47.2236 255.085 47.2236C254.922 47.2236 254.841 46.9805 254.841 46.4944C254.841 45.9678 254.922 45.6234 255.085 45.4614L262.376 45.5829C263.551 45.6234 264.989 45.6032 266.69 45.5222C268.392 45.4006 269.81 45.3399 270.944 45.3399C273.131 45.3399 275.218 45.7652 277.203 46.6159C279.228 47.4666 280.869 48.7224 282.124 50.3833C283.421 52.0442 284.069 54.0696 284.069 56.4597C284.069 58.1611 283.421 59.9435 282.124 61.8069C280.869 63.6703 279.147 65.1084 276.96 66.1211C276.554 66.2832 276.433 66.4857 276.595 66.7288C278.58 70.9417 280.909 74.5065 283.583 77.4232C287.472 81.6767 290.631 83.8034 293.062 83.8034C293.183 84.0465 293.244 84.33 293.244 84.6541C293.244 85.0187 293.183 85.3225 293.062 85.5656C292.657 85.6871 292.11 85.7479 291.421 85.7479ZM270.275 64.2374H271.795C272.767 64.2374 273.759 63.9134 274.772 63.2652C275.825 62.6171 276.696 61.7056 277.385 60.5308C278.114 59.3561 278.479 57.999 278.479 56.4597C278.479 50.8289 275.643 48.0135 269.972 48.0135C268.108 48.0135 266.69 48.1553 265.718 48.4388C265.354 48.5198 265.131 49.1883 265.05 50.444C265.009 51.6593 264.989 53.2189 264.989 55.1229V62.4753C264.989 63.6501 266.751 64.2374 270.275 64.2374ZM294.095 85.6263C293.933 85.4643 293.852 85.1605 293.852 84.7149C293.852 84.1477 293.933 83.8642 294.095 83.8642C294.581 83.8642 295.209 83.7629 295.979 83.5604C296.748 83.3578 297.275 83.0742 297.558 82.7097C298.004 82.1425 298.45 81.3931 298.895 80.4614C299.381 79.5297 299.888 78.3752 300.414 76.9979L310.987 49.8364C311.23 49.2288 311.372 48.8034 311.413 48.5604C311.494 48.3173 311.554 48.1148 311.595 47.9527C311.676 47.7502 311.818 47.4261 312.02 46.9805C312.304 46.4134 312.587 45.9678 312.871 45.6437C313.155 45.3196 313.62 45.1576 314.269 45.1576L314.815 45.3399L326.968 77.4232C327.333 78.3549 327.657 79.1854 327.94 79.9145C328.264 80.6437 328.528 81.2716 328.73 81.7982C328.892 82.2033 329.237 82.5679 329.763 82.892C330.33 83.1755 330.898 83.4186 331.465 83.6211C332.072 83.7832 332.538 83.8642 332.862 83.8642C333.024 83.8642 333.105 84.249 333.105 85.0187C333.105 85.0997 333.085 85.201 333.045 85.3225C333.045 85.4035 333.024 85.5048 332.984 85.6263C330.958 85.5453 329.378 85.4845 328.244 85.444C327.15 85.363 326.502 85.3225 326.3 85.3225L319.251 85.6263C319.089 85.4643 319.008 85.1402 319.008 84.6541C319.049 84.1275 319.15 83.8642 319.312 83.8642C319.798 83.8642 320.406 83.7629 321.135 83.5604C321.864 83.3578 322.289 83.0945 322.411 82.7704C322.451 82.6084 322.472 82.4464 322.472 82.2843C322.512 82.1223 322.532 81.9602 322.532 81.7982C322.532 81.2716 322.472 80.6639 322.35 79.9753C322.229 79.2461 322.087 78.679 321.925 78.2739L319.19 70.7392C319.069 70.5771 318.947 70.4961 318.826 70.4961C317.246 70.3746 315.707 70.3138 314.208 70.3138C313.155 70.3138 311.98 70.3543 310.683 70.4354C309.428 70.4759 308.03 70.5366 306.491 70.6176L306.187 70.7999L303.574 77.484C303.169 78.4967 302.885 79.3474 302.723 80.0361C302.602 80.7247 302.541 81.2716 302.541 81.6767C302.541 82.2438 302.703 82.6489 303.027 82.892C303.392 83.1755 303.979 83.4186 304.789 83.6211C305.6 83.7832 306.187 83.8642 306.552 83.8642C306.673 83.8642 306.734 84.1072 306.734 84.5933C306.774 85.0795 306.754 85.4238 306.673 85.6263L300.414 85.3225C299.28 85.2415 298.166 85.2617 297.072 85.3833C296.019 85.4643 295.027 85.5453 294.095 85.6263ZM312.081 67.3972C313.904 67.3972 315.747 67.3364 317.611 67.2149L317.793 66.9111L312.871 53.4822L307.645 67.0326C307.645 67.1946 307.686 67.2756 307.767 67.2756C308.82 67.3161 309.691 67.3567 310.38 67.3972C311.109 67.3972 311.676 67.3972 312.081 67.3972ZM369.078 85.9909C368.794 85.9909 368.591 85.8694 368.47 85.6263L356.013 54.2114C355.001 51.5378 354.089 49.5933 353.279 48.3781C352.995 47.9325 352.408 47.5881 351.517 47.3451C350.626 47.102 349.917 46.9805 349.39 46.9805C349.228 46.9805 349.147 46.7172 349.147 46.1906C349.147 45.7045 349.228 45.3804 349.39 45.2183C350.362 45.2589 351.456 45.3196 352.671 45.4006C353.887 45.4817 355.122 45.5222 356.378 45.5222C356.864 45.5222 357.735 45.5019 358.991 45.4614C360.247 45.3804 361.887 45.2994 363.913 45.2183C363.994 45.3804 364.014 45.7247 363.973 46.2513C363.973 46.7374 363.913 46.9805 363.791 46.9805C363.021 46.9805 362.231 47.1425 361.421 47.4666C360.611 47.7907 360.206 48.297 360.206 48.9857C360.206 50.1605 362.758 56.9863 367.862 69.4631C368.429 70.8405 368.916 72.076 369.321 73.1697C369.766 74.223 370.151 75.1344 370.475 75.9041C370.597 76.1067 370.759 76.1674 370.961 76.0864C371.204 75.9649 371.366 75.8028 371.447 75.6003L380.562 53.6038C381.332 51.6593 381.716 50.2415 381.716 49.3503C381.716 48.7427 381.453 48.2768 380.927 47.9527C380.4 47.5881 379.792 47.3451 379.104 47.2236C378.455 47.0615 377.909 46.9805 377.463 46.9805C377.301 46.9805 377.22 46.7172 377.22 46.1906C377.22 45.7045 377.301 45.3804 377.463 45.2183C379.367 45.2994 380.845 45.3804 381.899 45.4614C382.992 45.5019 383.681 45.5222 383.965 45.5222L390.102 45.2183C390.183 45.5424 390.223 45.8462 390.223 46.1298C390.223 46.6969 390.142 46.9805 389.98 46.9805C388.157 46.9805 386.942 47.5476 386.334 48.6819C385.889 49.5326 385.403 50.4845 384.876 51.5378C384.39 52.5505 383.884 53.6848 383.357 54.9406L371.204 83.9857C370.678 85.3225 369.969 85.9909 369.078 85.9909ZM385.362 85.6263C385.2 85.4643 385.119 85.1605 385.119 84.7149C385.119 84.1477 385.2 83.8642 385.362 83.8642C385.848 83.8642 386.476 83.7629 387.246 83.5604C388.016 83.3578 388.542 83.0742 388.826 82.7097C389.271 82.1425 389.717 81.3931 390.163 80.4614C390.649 79.5297 391.155 78.3752 391.682 76.9979L402.255 49.8364C402.498 49.2288 402.639 48.8034 402.68 48.5604C402.761 48.3173 402.822 48.1148 402.862 47.9527C402.943 47.7502 403.085 47.4261 403.288 46.9805C403.571 46.4134 403.855 45.9678 404.138 45.6437C404.422 45.3196 404.888 45.1576 405.536 45.1576L406.083 45.3399L418.236 77.4232C418.6 78.3549 418.924 79.1854 419.208 79.9145C419.532 80.6437 419.795 81.2716 419.998 81.7982C420.16 82.2033 420.504 82.5679 421.031 82.892C421.598 83.1755 422.165 83.4186 422.732 83.6211C423.34 83.7832 423.806 83.8642 424.13 83.8642C424.292 83.8642 424.373 84.249 424.373 85.0187C424.373 85.0997 424.352 85.201 424.312 85.3225C424.312 85.4035 424.292 85.5048 424.251 85.6263C422.226 85.5453 420.646 85.4845 419.512 85.444C418.418 85.363 417.77 85.3225 417.567 85.3225L410.519 85.6263C410.356 85.4643 410.275 85.1402 410.275 84.6541C410.316 84.1275 410.417 83.8642 410.579 83.8642C411.065 83.8642 411.673 83.7629 412.402 83.5604C413.131 83.3578 413.557 83.0945 413.678 82.7704C413.719 82.6084 413.739 82.4464 413.739 82.2843C413.78 82.1223 413.8 81.9602 413.8 81.7982C413.8 81.2716 413.739 80.6639 413.617 79.9753C413.496 79.2461 413.354 78.679 413.192 78.2739L410.458 70.7392C410.336 70.5771 410.215 70.4961 410.093 70.4961C408.513 70.3746 406.974 70.3138 405.475 70.3138C404.422 70.3138 403.247 70.3543 401.951 70.4354C400.695 70.4759 399.297 70.5366 397.758 70.6176L397.454 70.7999L394.841 77.484C394.436 78.4967 394.153 79.3474 393.991 80.0361C393.869 80.7247 393.808 81.2716 393.808 81.6767C393.808 82.2438 393.97 82.6489 394.295 82.892C394.659 83.1755 395.247 83.4186 396.057 83.6211C396.867 83.7832 397.454 83.8642 397.819 83.8642C397.94 83.8642 398.001 84.1072 398.001 84.5933C398.042 85.0795 398.021 85.4238 397.94 85.6263L391.682 85.3225C390.547 85.2415 389.433 85.2617 388.34 85.3833C387.286 85.4643 386.294 85.5453 385.362 85.6263ZM403.348 67.3972C405.171 67.3972 407.014 67.3364 408.878 67.2149L409.06 66.9111L404.138 53.4822L398.913 67.0326C398.913 67.1946 398.953 67.2756 399.034 67.2756C400.087 67.3161 400.958 67.3567 401.647 67.3972C402.376 67.3972 402.943 67.3972 403.348 67.3972ZM440.414 86.0517C439.442 86.0517 438.409 85.9707 437.315 85.8086C436.222 85.6871 435.31 85.5453 434.581 85.3833C433.082 85.0997 431.988 84.8769 431.3 84.7149C430.652 84.5123 430.044 84.3705 429.477 84.2895C428.95 81.778 428.565 79.7322 428.322 78.1524C428.079 76.532 427.958 75.3572 427.958 74.6281C427.958 74.385 428.282 74.2635 428.93 74.2635C429.659 74.2635 430.166 74.4458 430.449 74.8104C431.867 80.6437 435.229 83.5604 440.536 83.5604C442.561 83.5604 444.283 82.9527 445.701 81.7374C447.119 80.5222 447.828 78.8005 447.828 76.5725C447.828 75.8433 447.666 74.9521 447.341 73.8989C447.058 72.8457 446.389 71.9342 445.336 71.1645C444.526 70.5569 443.858 70.1113 443.331 69.8277C442.804 69.5036 442.278 69.2201 441.751 68.977C441.225 68.6935 440.556 68.3086 439.746 67.8225L437.315 66.3642C436.06 65.5945 434.804 64.7236 433.548 63.7513C432.292 62.7386 431.239 61.5638 430.388 60.227C429.578 58.8902 429.173 57.3711 429.173 55.6697C429.173 53.5227 429.72 51.6593 430.814 50.0795C431.948 48.4591 433.406 47.2033 435.189 46.3121C437.012 45.4209 438.976 44.9753 441.083 44.9753C441.974 44.9753 442.804 45.0361 443.574 45.1576C444.384 45.2386 445.053 45.3399 445.579 45.4614C446.795 45.745 447.645 45.9678 448.131 46.1298C448.658 46.2918 449.367 46.4741 450.258 46.6767C450.744 48.7832 450.987 51.6796 450.987 55.3659C450.987 55.6495 450.785 55.7913 450.38 55.7913C449.367 55.7913 448.84 55.5887 448.8 55.1836C448.597 53.9683 448.152 52.7733 447.463 51.5986C446.774 50.4238 445.843 49.4516 444.668 48.6819C443.493 47.8717 442.095 47.4666 440.475 47.4666C438.814 47.4666 437.518 47.7907 436.586 48.4388C435.655 49.0465 434.986 49.8364 434.581 50.8086C434.216 51.7403 434.034 52.7328 434.034 53.7861C434.034 54.7988 434.277 55.8115 434.763 56.8242C435.249 57.837 435.958 58.6877 436.89 59.3763C438.146 60.308 439.402 61.179 440.657 61.9892C441.954 62.7994 443.291 63.6298 444.668 64.4805C445.964 65.2907 447.26 66.2021 448.557 67.2149C449.853 68.1871 450.927 69.3011 451.777 70.5569C452.668 71.8127 453.114 73.271 453.114 74.9319C453.114 77.0789 452.527 79.0031 451.352 80.7045C450.177 82.3653 448.617 83.6819 446.673 84.6541C444.769 85.5858 442.683 86.0517 440.414 86.0517ZM456.76 85.6263C456.598 85.4643 456.517 85.1605 456.517 84.7149C456.517 84.1477 456.598 83.8642 456.76 83.8642C457.246 83.8642 457.874 83.7629 458.644 83.5604C459.413 83.3578 459.94 83.0742 460.223 82.7097C460.669 82.1425 461.115 81.3931 461.56 80.4614C462.046 79.5297 462.553 78.3752 463.079 76.9979L473.652 49.8364C473.895 49.2288 474.037 48.8034 474.078 48.5604C474.159 48.3173 474.219 48.1148 474.26 47.9527C474.341 47.7502 474.483 47.4261 474.685 46.9805C474.969 46.4134 475.252 45.9678 475.536 45.6437C475.819 45.3196 476.285 45.1576 476.933 45.1576L477.48 45.3399L489.633 77.4232C489.998 78.3549 490.322 79.1854 490.605 79.9145C490.929 80.6437 491.193 81.2716 491.395 81.7982C491.557 82.2033 491.902 82.5679 492.428 82.892C492.995 83.1755 493.563 83.4186 494.13 83.6211C494.737 83.7832 495.203 83.8642 495.527 83.8642C495.689 83.8642 495.77 84.249 495.77 85.0187C495.77 85.0997 495.75 85.201 495.709 85.3225C495.709 85.4035 495.689 85.5048 495.649 85.6263C493.623 85.5453 492.043 85.4845 490.909 85.444C489.815 85.363 489.167 85.3225 488.965 85.3225L481.916 85.6263C481.754 85.4643 481.673 85.1402 481.673 84.6541C481.714 84.1275 481.815 83.8642 481.977 83.8642C482.463 83.8642 483.071 83.7629 483.8 83.5604C484.529 83.3578 484.954 83.0945 485.076 82.7704C485.116 82.6084 485.137 82.4464 485.137 82.2843C485.177 82.1223 485.197 81.9602 485.197 81.7982C485.197 81.2716 485.137 80.6639 485.015 79.9753C484.894 79.2461 484.752 78.679 484.59 78.2739L481.855 70.7392C481.734 70.5771 481.612 70.4961 481.491 70.4961C479.911 70.3746 478.372 70.3138 476.873 70.3138C475.819 70.3138 474.645 70.3543 473.348 70.4354C472.093 70.4759 470.695 70.5366 469.156 70.6176L468.852 70.7999L466.239 77.484C465.834 78.4967 465.55 79.3474 465.388 80.0361C465.267 80.7247 465.206 81.2716 465.206 81.6767C465.206 82.2438 465.368 82.6489 465.692 82.892C466.057 83.1755 466.644 83.4186 467.454 83.6211C468.264 83.7832 468.852 83.8642 469.216 83.8642C469.338 83.8642 469.399 84.1072 469.399 84.5933C469.439 85.0795 469.419 85.4238 469.338 85.6263L463.079 85.3225C461.945 85.2415 460.831 85.2617 459.737 85.3833C458.684 85.4643 457.692 85.5453 456.76 85.6263ZM474.746 67.3972C476.569 67.3972 478.412 67.3364 480.275 67.2149L480.458 66.9111L475.536 53.4822L470.31 67.0326C470.31 67.1946 470.351 67.2756 470.432 67.2756C471.485 67.3161 472.356 67.3567 473.045 67.3972C473.774 67.3972 474.341 67.3972 474.746 67.3972Z" fill="#162867"/>
<path d="M226.86 105.509C226.86 105.634 226.854 105.742 226.841 105.835C226.828 105.927 226.804 106.002 226.772 106.062C226.745 106.114 226.709 106.154 226.663 106.18C226.623 106.206 226.577 106.22 226.525 106.22H222.931V117.298C222.931 117.351 222.917 117.397 222.891 117.437C222.865 117.476 222.819 117.509 222.753 117.535C222.687 117.555 222.598 117.572 222.486 117.585C222.381 117.605 222.246 117.614 222.081 117.614C221.923 117.614 221.788 117.605 221.677 117.585C221.565 117.572 221.476 117.555 221.41 117.535C221.344 117.509 221.298 117.476 221.272 117.437C221.245 117.397 221.232 117.351 221.232 117.298V106.22H217.638C217.585 106.22 217.536 106.206 217.49 106.18C217.45 106.154 217.417 106.114 217.391 106.062C217.365 106.002 217.342 105.927 217.322 105.835C217.309 105.742 217.302 105.634 217.302 105.509C217.302 105.384 217.309 105.275 217.322 105.183C217.342 105.084 217.365 105.005 217.391 104.946C217.417 104.887 217.45 104.844 217.49 104.818C217.536 104.791 217.585 104.778 217.638 104.778H226.525C226.577 104.778 226.623 104.791 226.663 104.818C226.709 104.844 226.745 104.887 226.772 104.946C226.804 105.005 226.828 105.084 226.841 105.183C226.854 105.275 226.86 105.384 226.86 105.509ZM232.449 109.004C232.449 109.149 232.446 109.271 232.439 109.369C232.433 109.468 232.42 109.547 232.4 109.606C232.38 109.659 232.354 109.702 232.321 109.735C232.294 109.761 232.255 109.774 232.202 109.774C232.15 109.774 232.084 109.761 232.005 109.735C231.932 109.702 231.847 109.672 231.748 109.646C231.656 109.613 231.551 109.583 231.432 109.557C231.314 109.531 231.185 109.518 231.047 109.518C230.882 109.518 230.721 109.551 230.563 109.616C230.405 109.682 230.237 109.791 230.06 109.942C229.888 110.094 229.707 110.294 229.517 110.545C229.326 110.795 229.115 111.101 228.885 111.463V117.308C228.885 117.361 228.871 117.407 228.845 117.447C228.819 117.479 228.776 117.509 228.717 117.535C228.658 117.562 228.575 117.581 228.47 117.595C228.365 117.608 228.23 117.614 228.065 117.614C227.907 117.614 227.775 117.608 227.67 117.595C227.565 117.581 227.479 117.562 227.413 117.535C227.354 117.509 227.311 117.479 227.285 117.447C227.265 117.407 227.255 117.361 227.255 117.308V108.422C227.255 108.369 227.265 108.326 227.285 108.293C227.305 108.254 227.344 108.221 227.404 108.194C227.463 108.162 227.538 108.142 227.631 108.135C227.723 108.122 227.845 108.115 227.996 108.115C228.141 108.115 228.259 108.122 228.351 108.135C228.45 108.142 228.526 108.162 228.579 108.194C228.631 108.221 228.667 108.254 228.687 108.293C228.713 108.326 228.727 108.369 228.727 108.422V109.715C228.97 109.36 229.197 109.07 229.408 108.846C229.625 108.622 229.829 108.448 230.02 108.323C230.211 108.191 230.399 108.102 230.583 108.056C230.774 108.004 230.965 107.977 231.156 107.977C231.241 107.977 231.337 107.984 231.442 107.997C231.554 108.004 231.669 108.02 231.788 108.046C231.906 108.073 232.011 108.102 232.104 108.135C232.202 108.168 232.271 108.201 232.311 108.234C232.35 108.267 232.377 108.3 232.39 108.333C232.403 108.359 232.413 108.395 232.42 108.441C232.433 108.487 232.439 108.557 232.439 108.649C232.446 108.734 232.449 108.853 232.449 109.004ZM241.918 117.308C241.918 117.361 241.905 117.407 241.879 117.447C241.859 117.479 241.82 117.509 241.76 117.535C241.701 117.562 241.622 117.581 241.524 117.595C241.431 117.608 241.316 117.614 241.178 117.614C241.027 117.614 240.901 117.608 240.803 117.595C240.711 117.581 240.635 117.562 240.576 117.535C240.523 117.509 240.487 117.479 240.467 117.447C240.447 117.407 240.437 117.361 240.437 117.308V116.133C239.93 116.693 239.43 117.101 238.936 117.358C238.443 117.614 237.942 117.743 237.436 117.743C236.843 117.743 236.343 117.644 235.935 117.447C235.533 117.249 235.207 116.982 234.957 116.647C234.707 116.304 234.526 115.909 234.414 115.462C234.309 115.008 234.256 114.458 234.256 113.813V108.422C234.256 108.369 234.266 108.326 234.286 108.293C234.312 108.254 234.358 108.221 234.424 108.194C234.49 108.162 234.575 108.142 234.681 108.135C234.786 108.122 234.918 108.115 235.076 108.115C235.234 108.115 235.365 108.122 235.471 108.135C235.576 108.142 235.658 108.162 235.718 108.194C235.783 108.221 235.829 108.254 235.856 108.293C235.882 108.326 235.895 108.369 235.895 108.422V113.596C235.895 114.116 235.931 114.534 236.004 114.85C236.083 115.159 236.198 115.426 236.349 115.649C236.507 115.867 236.705 116.038 236.942 116.163C237.179 116.281 237.455 116.341 237.771 116.341C238.179 116.341 238.584 116.196 238.986 115.906C239.394 115.617 239.825 115.192 240.279 114.632V108.422C240.279 108.369 240.289 108.326 240.309 108.293C240.335 108.254 240.381 108.221 240.447 108.194C240.513 108.162 240.595 108.142 240.694 108.135C240.799 108.122 240.934 108.115 241.099 108.115C241.257 108.115 241.389 108.122 241.494 108.135C241.599 108.142 241.682 108.162 241.741 108.194C241.8 108.221 241.843 108.254 241.869 108.293C241.902 108.326 241.918 108.369 241.918 108.422V117.308ZM250.509 114.889C250.509 115.343 250.423 115.748 250.252 116.104C250.088 116.459 249.851 116.759 249.541 117.002C249.232 117.246 248.863 117.43 248.435 117.555C248.008 117.68 247.537 117.743 247.023 117.743C246.707 117.743 246.405 117.716 246.115 117.664C245.832 117.618 245.575 117.558 245.345 117.486C245.121 117.407 244.93 117.328 244.772 117.249C244.614 117.163 244.499 117.088 244.427 117.022C244.354 116.956 244.301 116.864 244.269 116.745C244.236 116.627 244.219 116.466 244.219 116.262C244.219 116.137 244.226 116.031 244.239 115.946C244.252 115.86 244.269 115.791 244.288 115.738C244.308 115.686 244.334 115.649 244.367 115.63C244.407 115.603 244.45 115.59 244.496 115.59C244.568 115.59 244.673 115.636 244.812 115.728C244.956 115.814 245.131 115.909 245.335 116.015C245.546 116.12 245.792 116.219 246.075 116.311C246.359 116.397 246.684 116.439 247.053 116.439C247.33 116.439 247.58 116.41 247.803 116.351C248.027 116.291 248.221 116.206 248.386 116.094C248.551 115.975 248.676 115.827 248.761 115.649C248.853 115.472 248.899 115.261 248.899 115.018C248.899 114.767 248.834 114.557 248.702 114.386C248.577 114.214 248.409 114.063 248.198 113.931C247.988 113.8 247.751 113.684 247.487 113.586C247.224 113.48 246.951 113.372 246.668 113.26C246.391 113.148 246.118 113.023 245.848 112.885C245.585 112.74 245.348 112.565 245.137 112.361C244.927 112.157 244.756 111.914 244.624 111.631C244.499 111.348 244.436 111.009 244.436 110.614C244.436 110.265 244.502 109.932 244.634 109.616C244.772 109.294 244.976 109.014 245.246 108.777C245.516 108.533 245.852 108.339 246.253 108.194C246.661 108.05 247.135 107.977 247.675 107.977C247.912 107.977 248.149 107.997 248.386 108.036C248.623 108.076 248.837 108.125 249.028 108.185C249.219 108.244 249.38 108.31 249.512 108.382C249.65 108.448 249.752 108.507 249.818 108.56C249.89 108.612 249.936 108.659 249.956 108.698C249.982 108.738 249.999 108.784 250.005 108.836C250.019 108.882 250.028 108.942 250.035 109.014C250.048 109.086 250.055 109.175 250.055 109.281C250.055 109.393 250.048 109.491 250.035 109.577C250.028 109.656 250.012 109.722 249.986 109.774C249.966 109.827 249.94 109.866 249.907 109.893C249.874 109.913 249.838 109.922 249.798 109.922C249.739 109.922 249.653 109.886 249.541 109.814C249.429 109.741 249.285 109.666 249.107 109.587C248.929 109.501 248.718 109.422 248.475 109.35C248.238 109.277 247.965 109.241 247.655 109.241C247.379 109.241 247.135 109.274 246.925 109.34C246.714 109.399 246.54 109.488 246.401 109.606C246.27 109.718 246.168 109.853 246.095 110.011C246.029 110.169 245.997 110.34 245.997 110.525C245.997 110.781 246.062 110.999 246.194 111.176C246.326 111.348 246.497 111.499 246.707 111.631C246.918 111.762 247.158 111.881 247.428 111.986C247.698 112.091 247.971 112.2 248.248 112.312C248.531 112.424 248.807 112.549 249.077 112.687C249.354 112.825 249.597 112.993 249.808 113.191C250.019 113.388 250.186 113.625 250.311 113.902C250.443 114.178 250.509 114.507 250.509 114.889ZM257.233 116.657C257.233 116.848 257.22 116.999 257.194 117.111C257.167 117.223 257.128 117.305 257.075 117.358C257.023 117.41 256.944 117.46 256.838 117.506C256.733 117.552 256.611 117.588 256.473 117.614C256.341 117.647 256.2 117.674 256.048 117.693C255.897 117.713 255.746 117.723 255.594 117.723C255.133 117.723 254.738 117.664 254.409 117.545C254.08 117.42 253.81 117.236 253.6 116.992C253.389 116.742 253.234 116.43 253.135 116.054C253.043 115.672 252.997 115.225 252.997 114.711V109.518H251.753C251.654 109.518 251.575 109.465 251.516 109.36C251.457 109.254 251.427 109.083 251.427 108.846C251.427 108.721 251.434 108.616 251.447 108.53C251.467 108.445 251.49 108.376 251.516 108.323C251.542 108.264 251.575 108.224 251.615 108.204C251.661 108.178 251.71 108.165 251.763 108.165H252.997V106.052C252.997 106.006 253.007 105.963 253.027 105.923C253.053 105.884 253.096 105.851 253.155 105.825C253.221 105.792 253.307 105.769 253.412 105.756C253.517 105.742 253.649 105.736 253.807 105.736C253.972 105.736 254.106 105.742 254.212 105.756C254.317 105.769 254.399 105.792 254.459 105.825C254.518 105.851 254.561 105.884 254.587 105.923C254.613 105.963 254.626 106.006 254.626 106.052V108.165H256.907C256.96 108.165 257.006 108.178 257.046 108.204C257.085 108.224 257.118 108.264 257.144 108.323C257.177 108.376 257.2 108.445 257.214 108.53C257.227 108.616 257.233 108.721 257.233 108.846C257.233 109.083 257.204 109.254 257.144 109.36C257.085 109.465 257.006 109.518 256.907 109.518H254.626V114.474C254.626 115.087 254.715 115.551 254.893 115.867C255.077 116.176 255.403 116.331 255.871 116.331C256.022 116.331 256.157 116.318 256.275 116.291C256.394 116.258 256.499 116.225 256.591 116.193C256.684 116.16 256.763 116.13 256.828 116.104C256.894 116.071 256.953 116.054 257.006 116.054C257.039 116.054 257.069 116.064 257.095 116.084C257.128 116.097 257.151 116.127 257.164 116.173C257.184 116.219 257.2 116.281 257.214 116.36C257.227 116.439 257.233 116.538 257.233 116.657ZM266.752 112.48C266.752 112.737 266.686 112.921 266.554 113.033C266.429 113.138 266.285 113.191 266.12 113.191H260.294C260.294 113.684 260.344 114.129 260.442 114.524C260.541 114.919 260.706 115.258 260.936 115.541C261.166 115.824 261.466 116.041 261.835 116.193C262.203 116.344 262.654 116.42 263.187 116.42C263.609 116.42 263.984 116.387 264.313 116.321C264.642 116.248 264.925 116.169 265.162 116.084C265.406 115.998 265.603 115.923 265.755 115.857C265.913 115.784 266.031 115.748 266.11 115.748C266.156 115.748 266.196 115.761 266.229 115.788C266.268 115.807 266.298 115.84 266.317 115.886C266.337 115.933 266.35 115.998 266.357 116.084C266.37 116.163 266.377 116.262 266.377 116.38C266.377 116.466 266.373 116.541 266.367 116.607C266.36 116.666 266.35 116.722 266.337 116.775C266.331 116.821 266.314 116.864 266.288 116.903C266.268 116.943 266.238 116.982 266.199 117.022C266.166 117.055 266.061 117.114 265.883 117.2C265.705 117.279 265.475 117.358 265.192 117.437C264.909 117.516 264.58 117.585 264.204 117.644C263.836 117.71 263.441 117.743 263.02 117.743C262.289 117.743 261.647 117.641 261.094 117.437C260.548 117.233 260.087 116.93 259.712 116.528C259.336 116.127 259.053 115.623 258.862 115.018C258.672 114.412 258.576 113.708 258.576 112.904C258.576 112.141 258.675 111.456 258.872 110.851C259.07 110.238 259.353 109.722 259.722 109.3C260.097 108.872 260.548 108.547 261.074 108.323C261.601 108.092 262.19 107.977 262.842 107.977C263.54 107.977 264.132 108.089 264.619 108.313C265.113 108.537 265.518 108.84 265.834 109.221C266.15 109.597 266.38 110.041 266.525 110.554C266.676 111.061 266.752 111.604 266.752 112.184V112.48ZM265.113 111.996C265.133 111.14 264.942 110.469 264.54 109.982C264.145 109.495 263.556 109.251 262.773 109.251C262.371 109.251 262.019 109.327 261.716 109.478C261.413 109.63 261.16 109.83 260.956 110.08C260.752 110.331 260.594 110.624 260.482 110.959C260.37 111.288 260.307 111.634 260.294 111.996H265.113ZM276.853 117.308C276.853 117.361 276.84 117.407 276.814 117.447C276.794 117.486 276.754 117.519 276.695 117.545C276.643 117.565 276.57 117.581 276.478 117.595C276.386 117.608 276.274 117.614 276.142 117.614C276.004 117.614 275.889 117.608 275.797 117.595C275.704 117.581 275.629 117.565 275.57 117.545C275.51 117.519 275.467 117.486 275.441 117.447C275.415 117.407 275.402 117.361 275.402 117.308V116.133C274.934 116.64 274.447 117.035 273.94 117.318C273.44 117.601 272.89 117.743 272.291 117.743C271.64 117.743 271.083 117.618 270.623 117.368C270.162 117.111 269.787 116.769 269.497 116.341C269.214 115.906 269.007 115.399 268.875 114.82C268.743 114.234 268.677 113.619 268.677 112.974C268.677 112.21 268.76 111.522 268.924 110.91C269.089 110.291 269.332 109.764 269.655 109.33C269.977 108.896 270.376 108.563 270.85 108.333C271.33 108.096 271.883 107.977 272.509 107.977C273.029 107.977 273.503 108.092 273.93 108.323C274.365 108.547 274.793 108.879 275.214 109.32V104.156C275.214 104.11 275.224 104.067 275.244 104.028C275.27 103.982 275.316 103.949 275.382 103.929C275.448 103.903 275.53 103.883 275.629 103.87C275.734 103.85 275.866 103.84 276.024 103.84C276.188 103.84 276.323 103.85 276.429 103.87C276.534 103.883 276.616 103.903 276.675 103.929C276.735 103.949 276.777 103.982 276.804 104.028C276.837 104.067 276.853 104.11 276.853 104.156V117.308ZM275.214 111.058C274.773 110.512 274.345 110.097 273.93 109.814C273.522 109.524 273.094 109.379 272.647 109.379C272.232 109.379 271.88 109.478 271.59 109.676C271.301 109.873 271.064 110.133 270.879 110.456C270.702 110.778 270.57 111.144 270.484 111.552C270.405 111.96 270.366 112.375 270.366 112.796C270.366 113.243 270.399 113.681 270.465 114.109C270.537 114.537 270.659 114.919 270.83 115.254C271.001 115.584 271.228 115.85 271.511 116.054C271.794 116.252 272.15 116.351 272.578 116.351C272.795 116.351 273.002 116.321 273.2 116.262C273.404 116.202 273.611 116.104 273.822 115.965C274.032 115.827 274.253 115.649 274.483 115.432C274.714 115.208 274.957 114.935 275.214 114.613V111.058ZM301.805 105.509C301.805 105.634 301.799 105.742 301.785 105.835C301.772 105.927 301.749 106.002 301.716 106.062C301.69 106.114 301.654 106.154 301.608 106.18C301.568 106.206 301.522 106.22 301.469 106.22H297.875V117.298C297.875 117.351 297.862 117.397 297.836 117.437C297.809 117.476 297.763 117.509 297.697 117.535C297.632 117.555 297.543 117.572 297.431 117.585C297.326 117.605 297.191 117.614 297.026 117.614C296.868 117.614 296.733 117.605 296.621 117.585C296.509 117.572 296.42 117.555 296.355 117.535C296.289 117.509 296.243 117.476 296.216 117.437C296.19 117.397 296.177 117.351 296.177 117.298V106.22H292.583C292.53 106.22 292.481 106.206 292.435 106.18C292.395 106.154 292.362 106.114 292.336 106.062C292.309 106.002 292.286 105.927 292.267 105.835C292.254 105.742 292.247 105.634 292.247 105.509C292.247 105.384 292.254 105.275 292.267 105.183C292.286 105.084 292.309 105.005 292.336 104.946C292.362 104.887 292.395 104.844 292.435 104.818C292.481 104.791 292.53 104.778 292.583 104.778H301.469C301.522 104.778 301.568 104.791 301.608 104.818C301.654 104.844 301.69 104.887 301.716 104.946C301.749 105.005 301.772 105.084 301.785 105.183C301.799 105.275 301.805 105.384 301.805 105.509ZM307.394 109.004C307.394 109.149 307.391 109.271 307.384 109.369C307.377 109.468 307.364 109.547 307.344 109.606C307.325 109.659 307.298 109.702 307.265 109.735C307.239 109.761 307.2 109.774 307.147 109.774C307.094 109.774 307.029 109.761 306.95 109.735C306.877 109.702 306.792 109.672 306.693 109.646C306.601 109.613 306.495 109.583 306.377 109.557C306.258 109.531 306.13 109.518 305.992 109.518C305.827 109.518 305.666 109.551 305.508 109.616C305.35 109.682 305.182 109.791 305.004 109.942C304.833 110.094 304.652 110.294 304.461 110.545C304.27 110.795 304.06 111.101 303.829 111.463V117.308C303.829 117.361 303.816 117.407 303.79 117.447C303.763 117.479 303.721 117.509 303.661 117.535C303.602 117.562 303.52 117.581 303.415 117.595C303.309 117.608 303.174 117.614 303.01 117.614C302.852 117.614 302.72 117.608 302.615 117.595C302.509 117.581 302.424 117.562 302.358 117.535C302.299 117.509 302.256 117.479 302.23 117.447C302.21 117.407 302.2 117.361 302.2 117.308V108.422C302.2 108.369 302.21 108.326 302.23 108.293C302.249 108.254 302.289 108.221 302.348 108.194C302.407 108.162 302.483 108.142 302.575 108.135C302.667 108.122 302.789 108.115 302.941 108.115C303.085 108.115 303.204 108.122 303.296 108.135C303.395 108.142 303.471 108.162 303.523 108.194C303.576 108.221 303.612 108.254 303.632 108.293C303.658 108.326 303.671 108.369 303.671 108.422V109.715C303.915 109.36 304.142 109.07 304.353 108.846C304.57 108.622 304.774 108.448 304.965 108.323C305.156 108.191 305.343 108.102 305.528 108.056C305.719 108.004 305.909 107.977 306.1 107.977C306.186 107.977 306.281 107.984 306.387 107.997C306.499 108.004 306.614 108.02 306.732 108.046C306.851 108.073 306.956 108.102 307.048 108.135C307.147 108.168 307.216 108.201 307.256 108.234C307.295 108.267 307.321 108.3 307.335 108.333C307.348 108.359 307.358 108.395 307.364 108.441C307.377 108.487 307.384 108.557 307.384 108.649C307.391 108.734 307.394 108.853 307.394 109.004ZM315.53 117.318C315.53 117.397 315.504 117.456 315.451 117.496C315.398 117.535 315.326 117.565 315.234 117.585C315.142 117.605 315.007 117.614 314.829 117.614C314.658 117.614 314.52 117.605 314.414 117.585C314.316 117.565 314.243 117.535 314.197 117.496C314.151 117.456 314.128 117.397 314.128 117.318V116.43C313.74 116.844 313.305 117.167 312.825 117.397C312.351 117.628 311.847 117.743 311.314 117.743C310.847 117.743 310.422 117.68 310.04 117.555C309.665 117.437 309.342 117.262 309.072 117.032C308.809 116.801 308.602 116.518 308.45 116.183C308.306 115.847 308.233 115.465 308.233 115.037C308.233 114.537 308.335 114.102 308.539 113.734C308.743 113.365 309.036 113.059 309.418 112.816C309.8 112.572 310.267 112.391 310.82 112.272C311.373 112.147 311.995 112.085 312.686 112.085H313.911V111.394C313.911 111.051 313.875 110.749 313.802 110.485C313.73 110.222 313.611 110.005 313.447 109.834C313.289 109.656 313.081 109.524 312.825 109.439C312.568 109.346 312.252 109.3 311.877 109.3C311.475 109.3 311.113 109.35 310.791 109.448C310.475 109.541 310.195 109.646 309.951 109.764C309.714 109.876 309.514 109.982 309.349 110.08C309.191 110.173 309.072 110.219 308.993 110.219C308.941 110.219 308.895 110.206 308.855 110.179C308.816 110.153 308.78 110.113 308.747 110.061C308.72 110.008 308.701 109.942 308.687 109.863C308.674 109.778 308.668 109.685 308.668 109.587C308.668 109.422 308.677 109.294 308.697 109.202C308.724 109.103 308.78 109.011 308.865 108.925C308.957 108.84 309.112 108.741 309.329 108.629C309.546 108.51 309.797 108.405 310.08 108.313C310.363 108.214 310.672 108.135 311.008 108.076C311.344 108.01 311.683 107.977 312.025 107.977C312.663 107.977 313.206 108.05 313.654 108.194C314.102 108.339 314.464 108.553 314.74 108.836C315.017 109.113 315.217 109.458 315.343 109.873C315.468 110.288 315.53 110.772 315.53 111.325V117.318ZM313.911 113.26H312.519C312.071 113.26 311.683 113.299 311.353 113.378C311.024 113.451 310.751 113.563 310.534 113.714C310.317 113.859 310.155 114.037 310.05 114.247C309.951 114.451 309.902 114.688 309.902 114.958C309.902 115.419 310.047 115.788 310.336 116.064C310.633 116.334 311.044 116.469 311.571 116.469C311.998 116.469 312.393 116.36 312.756 116.143C313.124 115.926 313.509 115.593 313.911 115.146V113.26ZM326.184 117.308C326.184 117.361 326.171 117.407 326.145 117.447C326.119 117.479 326.076 117.509 326.016 117.535C325.957 117.562 325.875 117.581 325.77 117.595C325.664 117.608 325.533 117.614 325.375 117.614C325.21 117.614 325.075 117.608 324.97 117.595C324.864 117.581 324.782 117.562 324.723 117.535C324.664 117.509 324.621 117.479 324.595 117.447C324.568 117.407 324.555 117.361 324.555 117.308V112.105C324.555 111.598 324.516 111.19 324.437 110.88C324.358 110.571 324.242 110.304 324.091 110.08C323.94 109.857 323.742 109.685 323.499 109.567C323.262 109.448 322.985 109.389 322.669 109.389C322.261 109.389 321.853 109.534 321.445 109.824C321.037 110.113 320.609 110.538 320.161 111.097V117.308C320.161 117.361 320.148 117.407 320.122 117.447C320.095 117.479 320.052 117.509 319.993 117.535C319.934 117.562 319.852 117.581 319.746 117.595C319.641 117.608 319.506 117.614 319.342 117.614C319.184 117.614 319.052 117.608 318.947 117.595C318.841 117.581 318.756 117.562 318.69 117.535C318.631 117.509 318.588 117.479 318.561 117.447C318.542 117.407 318.532 117.361 318.532 117.308V108.422C318.532 108.369 318.542 108.326 318.561 108.293C318.581 108.254 318.621 108.221 318.68 108.194C318.739 108.162 318.815 108.142 318.907 108.135C318.999 108.122 319.121 108.115 319.272 108.115C319.417 108.115 319.536 108.122 319.628 108.135C319.727 108.142 319.802 108.162 319.855 108.194C319.908 108.221 319.944 108.254 319.964 108.293C319.99 108.326 320.003 108.369 320.003 108.422V109.597C320.503 109.037 321 108.629 321.494 108.372C321.994 108.109 322.498 107.977 323.005 107.977C323.597 107.977 324.094 108.079 324.496 108.283C324.904 108.481 325.233 108.747 325.483 109.083C325.733 109.419 325.911 109.814 326.016 110.268C326.128 110.716 326.184 111.255 326.184 111.887V117.308ZM334.735 114.889C334.735 115.343 334.65 115.748 334.479 116.104C334.314 116.459 334.077 116.759 333.768 117.002C333.458 117.246 333.09 117.43 332.662 117.555C332.234 117.68 331.763 117.743 331.25 117.743C330.934 117.743 330.631 117.716 330.341 117.664C330.058 117.618 329.802 117.558 329.571 117.486C329.347 117.407 329.156 117.328 328.998 117.249C328.84 117.163 328.725 117.088 328.653 117.022C328.58 116.956 328.528 116.864 328.495 116.745C328.462 116.627 328.446 116.466 328.446 116.262C328.446 116.137 328.452 116.031 328.465 115.946C328.478 115.86 328.495 115.791 328.515 115.738C328.534 115.686 328.561 115.649 328.594 115.63C328.633 115.603 328.676 115.59 328.722 115.59C328.794 115.59 328.9 115.636 329.038 115.728C329.183 115.814 329.357 115.909 329.561 116.015C329.772 116.12 330.019 116.219 330.302 116.311C330.585 116.397 330.911 116.439 331.279 116.439C331.556 116.439 331.806 116.41 332.03 116.351C332.254 116.291 332.448 116.206 332.612 116.094C332.777 115.975 332.902 115.827 332.988 115.649C333.08 115.472 333.126 115.261 333.126 115.018C333.126 114.767 333.06 114.557 332.928 114.386C332.803 114.214 332.635 114.063 332.425 113.931C332.214 113.8 331.977 113.684 331.714 113.586C331.451 113.48 331.177 113.372 330.894 113.26C330.618 113.148 330.345 113.023 330.075 112.885C329.811 112.74 329.574 112.565 329.364 112.361C329.153 112.157 328.982 111.914 328.85 111.631C328.725 111.348 328.663 111.009 328.663 110.614C328.663 110.265 328.729 109.932 328.86 109.616C328.998 109.294 329.203 109.014 329.472 108.777C329.742 108.533 330.078 108.339 330.48 108.194C330.888 108.05 331.362 107.977 331.901 107.977C332.138 107.977 332.375 107.997 332.612 108.036C332.849 108.076 333.063 108.125 333.254 108.185C333.445 108.244 333.606 108.31 333.738 108.382C333.876 108.448 333.978 108.507 334.044 108.56C334.117 108.612 334.163 108.659 334.182 108.698C334.209 108.738 334.225 108.784 334.232 108.836C334.245 108.882 334.255 108.942 334.261 109.014C334.275 109.086 334.281 109.175 334.281 109.281C334.281 109.393 334.275 109.491 334.261 109.577C334.255 109.656 334.238 109.722 334.212 109.774C334.192 109.827 334.166 109.866 334.133 109.893C334.1 109.913 334.064 109.922 334.024 109.922C333.965 109.922 333.88 109.886 333.768 109.814C333.656 109.741 333.511 109.666 333.333 109.587C333.155 109.501 332.945 109.422 332.701 109.35C332.464 109.277 332.191 109.241 331.882 109.241C331.605 109.241 331.362 109.274 331.151 109.34C330.94 109.399 330.766 109.488 330.628 109.606C330.496 109.718 330.394 109.853 330.322 110.011C330.256 110.169 330.223 110.34 330.223 110.525C330.223 110.781 330.289 110.999 330.42 111.176C330.552 111.348 330.723 111.499 330.934 111.631C331.144 111.762 331.385 111.881 331.655 111.986C331.924 112.091 332.198 112.2 332.474 112.312C332.757 112.424 333.034 112.549 333.304 112.687C333.58 112.825 333.824 112.993 334.034 113.191C334.245 113.388 334.413 113.625 334.538 113.902C334.669 114.178 334.735 114.507 334.735 114.889ZM345.251 112.727C345.251 113.503 345.166 114.201 344.995 114.82C344.83 115.439 344.583 115.965 344.254 116.4C343.931 116.828 343.53 117.16 343.049 117.397C342.569 117.628 342.019 117.743 341.4 117.743C341.137 117.743 340.893 117.716 340.67 117.664C340.446 117.611 340.225 117.529 340.008 117.417C339.797 117.305 339.587 117.163 339.376 116.992C339.166 116.821 338.942 116.62 338.705 116.39V120.833C338.705 120.886 338.692 120.932 338.665 120.972C338.639 121.011 338.596 121.044 338.537 121.07C338.478 121.097 338.395 121.116 338.29 121.13C338.185 121.143 338.05 121.149 337.885 121.149C337.727 121.149 337.596 121.143 337.49 121.13C337.385 121.116 337.299 121.097 337.233 121.07C337.174 121.044 337.131 121.011 337.105 120.972C337.085 120.932 337.075 120.886 337.075 120.833V108.422C337.075 108.362 337.085 108.316 337.105 108.283C337.125 108.244 337.164 108.211 337.224 108.185C337.283 108.158 337.359 108.142 337.451 108.135C337.543 108.122 337.655 108.115 337.786 108.115C337.925 108.115 338.037 108.122 338.122 108.135C338.214 108.142 338.29 108.158 338.349 108.185C338.409 108.211 338.448 108.244 338.468 108.283C338.494 108.316 338.507 108.362 338.507 108.422V109.616C338.777 109.34 339.037 109.1 339.287 108.896C339.537 108.691 339.788 108.524 340.038 108.392C340.294 108.254 340.554 108.152 340.818 108.086C341.088 108.013 341.371 107.977 341.667 107.977C342.312 107.977 342.862 108.102 343.316 108.352C343.77 108.603 344.139 108.945 344.422 109.379C344.711 109.814 344.922 110.321 345.054 110.9C345.185 111.473 345.251 112.082 345.251 112.727ZM343.533 112.914C343.533 112.46 343.497 112.022 343.425 111.601C343.359 111.173 343.24 110.795 343.069 110.466C342.905 110.136 342.681 109.873 342.398 109.676C342.115 109.478 341.762 109.379 341.341 109.379C341.13 109.379 340.923 109.412 340.719 109.478C340.515 109.537 340.308 109.636 340.097 109.774C339.886 109.906 339.666 110.084 339.435 110.308C339.205 110.525 338.961 110.795 338.705 111.117V114.652C339.152 115.199 339.577 115.617 339.978 115.906C340.38 116.196 340.801 116.341 341.242 116.341C341.651 116.341 341.999 116.242 342.289 116.044C342.585 115.847 342.822 115.584 343 115.254C343.184 114.925 343.319 114.557 343.405 114.149C343.49 113.74 343.533 113.329 343.533 112.914ZM354.395 117.318C354.395 117.397 354.368 117.456 354.316 117.496C354.263 117.535 354.191 117.565 354.098 117.585C354.006 117.605 353.871 117.614 353.694 117.614C353.523 117.614 353.384 117.605 353.279 117.585C353.18 117.565 353.108 117.535 353.062 117.496C353.016 117.456 352.993 117.397 352.993 117.318V116.43C352.604 116.844 352.17 117.167 351.689 117.397C351.215 117.628 350.712 117.743 350.178 117.743C349.711 117.743 349.287 117.68 348.905 117.555C348.529 117.437 348.207 117.262 347.937 117.032C347.674 116.801 347.466 116.518 347.315 116.183C347.17 115.847 347.098 115.465 347.098 115.037C347.098 114.537 347.2 114.102 347.404 113.734C347.608 113.365 347.901 113.059 348.283 112.816C348.664 112.572 349.132 112.391 349.685 112.272C350.238 112.147 350.86 112.085 351.551 112.085H352.775V111.394C352.775 111.051 352.739 110.749 352.667 110.485C352.594 110.222 352.476 110.005 352.311 109.834C352.153 109.656 351.946 109.524 351.689 109.439C351.432 109.346 351.117 109.3 350.741 109.3C350.34 109.3 349.978 109.35 349.655 109.448C349.339 109.541 349.059 109.646 348.816 109.764C348.579 109.876 348.378 109.982 348.214 110.08C348.056 110.173 347.937 110.219 347.858 110.219C347.805 110.219 347.759 110.206 347.72 110.179C347.68 110.153 347.644 110.113 347.611 110.061C347.585 110.008 347.565 109.942 347.552 109.863C347.539 109.778 347.532 109.685 347.532 109.587C347.532 109.422 347.542 109.294 347.562 109.202C347.588 109.103 347.644 109.011 347.73 108.925C347.822 108.84 347.977 108.741 348.194 108.629C348.411 108.51 348.661 108.405 348.944 108.313C349.227 108.214 349.537 108.135 349.872 108.076C350.208 108.01 350.547 107.977 350.889 107.977C351.528 107.977 352.071 108.05 352.519 108.194C352.966 108.339 353.328 108.553 353.605 108.836C353.881 109.113 354.082 109.458 354.207 109.873C354.332 110.288 354.395 110.772 354.395 111.325V117.318ZM352.775 113.26H351.383C350.935 113.26 350.547 113.299 350.218 113.378C349.889 113.451 349.616 113.563 349.398 113.714C349.181 113.859 349.02 114.037 348.915 114.247C348.816 114.451 348.766 114.688 348.766 114.958C348.766 115.419 348.911 115.788 349.201 116.064C349.497 116.334 349.909 116.469 350.435 116.469C350.863 116.469 351.258 116.36 351.62 116.143C351.989 115.926 352.374 115.593 352.775 115.146V113.26ZM362.59 109.004C362.59 109.149 362.587 109.271 362.58 109.369C362.574 109.468 362.561 109.547 362.541 109.606C362.521 109.659 362.495 109.702 362.462 109.735C362.436 109.761 362.396 109.774 362.343 109.774C362.291 109.774 362.225 109.761 362.146 109.735C362.074 109.702 361.988 109.672 361.889 109.646C361.797 109.613 361.692 109.583 361.573 109.557C361.455 109.531 361.326 109.518 361.188 109.518C361.024 109.518 360.862 109.551 360.704 109.616C360.546 109.682 360.378 109.791 360.201 109.942C360.03 110.094 359.849 110.294 359.658 110.545C359.467 110.795 359.256 111.101 359.026 111.463V117.308C359.026 117.361 359.013 117.407 358.986 117.447C358.96 117.479 358.917 117.509 358.858 117.535C358.799 117.562 358.716 117.581 358.611 117.595C358.506 117.608 358.371 117.614 358.206 117.614C358.048 117.614 357.916 117.608 357.811 117.595C357.706 117.581 357.62 117.562 357.554 117.535C357.495 117.509 357.452 117.479 357.426 117.447C357.406 117.407 357.396 117.361 357.396 117.308V108.422C357.396 108.369 357.406 108.326 357.426 108.293C357.446 108.254 357.485 108.221 357.545 108.194C357.604 108.162 357.68 108.142 357.772 108.135C357.864 108.122 357.986 108.115 358.137 108.115C358.282 108.115 358.4 108.122 358.492 108.135C358.591 108.142 358.667 108.162 358.72 108.194C358.772 108.221 358.808 108.254 358.828 108.293C358.855 108.326 358.868 108.369 358.868 108.422V109.715C359.111 109.36 359.338 109.07 359.549 108.846C359.766 108.622 359.97 108.448 360.161 108.323C360.352 108.191 360.54 108.102 360.724 108.056C360.915 108.004 361.106 107.977 361.297 107.977C361.382 107.977 361.478 107.984 361.583 107.997C361.695 108.004 361.81 108.02 361.929 108.046C362.047 108.073 362.152 108.102 362.245 108.135C362.343 108.168 362.413 108.201 362.452 108.234C362.492 108.267 362.518 108.3 362.531 108.333C362.544 108.359 362.554 108.395 362.561 108.441C362.574 108.487 362.58 108.557 362.58 108.649C362.587 108.734 362.59 108.853 362.59 109.004ZM371.753 112.48C371.753 112.737 371.688 112.921 371.556 113.033C371.431 113.138 371.286 113.191 371.122 113.191H365.296C365.296 113.684 365.345 114.129 365.444 114.524C365.543 114.919 365.707 115.258 365.938 115.541C366.168 115.824 366.468 116.041 366.836 116.193C367.205 116.344 367.656 116.42 368.189 116.42C368.61 116.42 368.985 116.387 369.315 116.321C369.644 116.248 369.927 116.169 370.164 116.084C370.407 115.998 370.605 115.923 370.756 115.857C370.914 115.784 371.033 115.748 371.112 115.748C371.158 115.748 371.197 115.761 371.23 115.788C371.27 115.807 371.299 115.84 371.319 115.886C371.339 115.933 371.352 115.998 371.358 116.084C371.372 116.163 371.378 116.262 371.378 116.38C371.378 116.466 371.375 116.541 371.368 116.607C371.362 116.666 371.352 116.722 371.339 116.775C371.332 116.821 371.316 116.864 371.289 116.903C371.27 116.943 371.24 116.982 371.201 117.022C371.168 117.055 371.062 117.114 370.885 117.2C370.707 117.279 370.476 117.358 370.193 117.437C369.91 117.516 369.581 117.585 369.206 117.644C368.837 117.71 368.442 117.743 368.021 117.743C367.29 117.743 366.649 117.641 366.096 117.437C365.549 117.233 365.088 116.93 364.713 116.528C364.338 116.127 364.055 115.623 363.864 115.018C363.673 114.412 363.578 113.708 363.578 112.904C363.578 112.141 363.676 111.456 363.874 110.851C364.071 110.238 364.354 109.722 364.723 109.3C365.098 108.872 365.549 108.547 366.076 108.323C366.602 108.092 367.192 107.977 367.843 107.977C368.541 107.977 369.134 108.089 369.621 108.313C370.114 108.537 370.519 108.84 370.835 109.221C371.151 109.597 371.382 110.041 371.526 110.554C371.678 111.061 371.753 111.604 371.753 112.184V112.48ZM370.114 111.996C370.134 111.14 369.943 110.469 369.542 109.982C369.147 109.495 368.558 109.251 367.774 109.251C367.373 109.251 367.02 109.327 366.718 109.478C366.415 109.63 366.161 109.83 365.957 110.08C365.753 110.331 365.595 110.624 365.483 110.959C365.371 111.288 365.309 111.634 365.296 111.996H370.114ZM381.894 117.308C381.894 117.361 381.881 117.407 381.855 117.447C381.828 117.479 381.786 117.509 381.726 117.535C381.667 117.562 381.585 117.581 381.479 117.595C381.374 117.608 381.242 117.614 381.085 117.614C380.92 117.614 380.785 117.608 380.68 117.595C380.574 117.581 380.492 117.562 380.433 117.535C380.374 117.509 380.331 117.479 380.304 117.447C380.278 117.407 380.265 117.361 380.265 117.308V112.105C380.265 111.598 380.225 111.19 380.146 110.88C380.067 110.571 379.952 110.304 379.801 110.08C379.649 109.857 379.452 109.685 379.208 109.567C378.971 109.448 378.695 109.389 378.379 109.389C377.971 109.389 377.563 109.534 377.155 109.824C376.746 110.113 376.319 110.538 375.871 111.097V117.308C375.871 117.361 375.858 117.407 375.831 117.447C375.805 117.479 375.762 117.509 375.703 117.535C375.644 117.562 375.562 117.581 375.456 117.595C375.351 117.608 375.216 117.614 375.051 117.614C374.893 117.614 374.762 117.608 374.656 117.595C374.551 117.581 374.466 117.562 374.4 117.535C374.34 117.509 374.298 117.479 374.271 117.447C374.252 117.407 374.242 117.361 374.242 117.308V108.422C374.242 108.369 374.252 108.326 374.271 108.293C374.291 108.254 374.331 108.221 374.39 108.194C374.449 108.162 374.525 108.142 374.617 108.135C374.709 108.122 374.831 108.115 374.982 108.115C375.127 108.115 375.246 108.122 375.338 108.135C375.436 108.142 375.512 108.162 375.565 108.194C375.618 108.221 375.654 108.254 375.673 108.293C375.7 108.326 375.713 108.369 375.713 108.422V109.597C376.213 109.037 376.71 108.629 377.204 108.372C377.704 108.109 378.208 107.977 378.715 107.977C379.307 107.977 379.804 108.079 380.206 108.283C380.614 108.481 380.943 108.747 381.193 109.083C381.443 109.419 381.621 109.814 381.726 110.268C381.838 110.716 381.894 111.255 381.894 111.887V117.308ZM389.29 116.657C389.29 116.848 389.277 116.999 389.25 117.111C389.224 117.223 389.185 117.305 389.132 117.358C389.079 117.41 389 117.46 388.895 117.506C388.79 117.552 388.668 117.588 388.53 117.614C388.398 117.647 388.256 117.674 388.105 117.693C387.954 117.713 387.802 117.723 387.651 117.723C387.19 117.723 386.795 117.664 386.466 117.545C386.137 117.42 385.867 117.236 385.656 116.992C385.446 116.742 385.291 116.43 385.192 116.054C385.1 115.672 385.054 115.225 385.054 114.711V109.518H383.81C383.711 109.518 383.632 109.465 383.573 109.36C383.514 109.254 383.484 109.083 383.484 108.846C383.484 108.721 383.49 108.616 383.504 108.53C383.523 108.445 383.546 108.376 383.573 108.323C383.599 108.264 383.632 108.224 383.672 108.204C383.718 108.178 383.767 108.165 383.82 108.165H385.054V106.052C385.054 106.006 385.064 105.963 385.084 105.923C385.11 105.884 385.153 105.851 385.212 105.825C385.278 105.792 385.363 105.769 385.469 105.756C385.574 105.742 385.706 105.736 385.864 105.736C386.028 105.736 386.163 105.742 386.268 105.756C386.374 105.769 386.456 105.792 386.515 105.825C386.575 105.851 386.617 105.884 386.644 105.923C386.67 105.963 386.683 106.006 386.683 106.052V108.165H388.964C389.017 108.165 389.063 108.178 389.102 108.204C389.142 108.224 389.175 108.264 389.201 108.323C389.234 108.376 389.257 108.445 389.27 108.53C389.283 108.616 389.29 108.721 389.29 108.846C389.29 109.083 389.26 109.254 389.201 109.36C389.142 109.465 389.063 109.518 388.964 109.518H386.683V114.474C386.683 115.087 386.772 115.551 386.95 115.867C387.134 116.176 387.46 116.331 387.927 116.331C388.079 116.331 388.214 116.318 388.332 116.291C388.451 116.258 388.556 116.225 388.648 116.193C388.74 116.16 388.819 116.13 388.885 116.104C388.951 116.071 389.01 116.054 389.063 116.054C389.096 116.054 389.125 116.064 389.152 116.084C389.185 116.097 389.208 116.127 389.221 116.173C389.241 116.219 389.257 116.281 389.27 116.36C389.283 116.439 389.29 116.538 389.29 116.657ZM413.383 105.509C413.383 105.634 413.376 105.742 413.363 105.835C413.35 105.927 413.327 106.002 413.294 106.062C413.268 106.114 413.231 106.154 413.185 106.18C413.146 106.206 413.1 106.22 413.047 106.22H409.453V117.298C409.453 117.351 409.44 117.397 409.413 117.437C409.387 117.476 409.341 117.509 409.275 117.535C409.209 117.555 409.12 117.572 409.009 117.585C408.903 117.605 408.768 117.614 408.604 117.614C408.446 117.614 408.311 117.605 408.199 117.585C408.087 117.572 407.998 117.555 407.932 117.535C407.866 117.509 407.82 117.476 407.794 117.437C407.768 117.397 407.755 117.351 407.755 117.298V106.22H404.16C404.108 106.22 404.058 106.206 404.012 106.18C403.973 106.154 403.94 106.114 403.913 106.062C403.887 106.002 403.864 105.927 403.844 105.835C403.831 105.742 403.825 105.634 403.825 105.509C403.825 105.384 403.831 105.275 403.844 105.183C403.864 105.084 403.887 105.005 403.913 104.946C403.94 104.887 403.973 104.844 404.012 104.818C404.058 104.791 404.108 104.778 404.16 104.778H413.047C413.1 104.778 413.146 104.791 413.185 104.818C413.231 104.844 413.268 104.887 413.294 104.946C413.327 105.005 413.35 105.084 413.363 105.183C413.376 105.275 413.383 105.384 413.383 105.509ZM422.694 117.308C422.694 117.361 422.681 117.407 422.655 117.447C422.628 117.479 422.585 117.509 422.526 117.535C422.467 117.562 422.385 117.581 422.279 117.595C422.174 117.608 422.042 117.614 421.884 117.614C421.72 117.614 421.585 117.608 421.48 117.595C421.374 117.581 421.292 117.562 421.233 117.535C421.173 117.509 421.131 117.479 421.104 117.447C421.078 117.407 421.065 117.361 421.065 117.308V112.105C421.065 111.598 421.025 111.19 420.946 110.88C420.867 110.571 420.752 110.304 420.601 110.08C420.449 109.857 420.252 109.685 420.008 109.567C419.771 109.448 419.495 109.389 419.179 109.389C418.771 109.389 418.363 109.534 417.955 109.824C417.546 110.113 417.119 110.538 416.671 111.097V117.308C416.671 117.361 416.658 117.407 416.631 117.447C416.605 117.479 416.562 117.509 416.503 117.535C416.444 117.562 416.361 117.581 416.256 117.595C416.151 117.608 416.016 117.614 415.851 117.614C415.693 117.614 415.562 117.608 415.456 117.595C415.351 117.581 415.265 117.562 415.2 117.535C415.14 117.509 415.098 117.479 415.071 117.447C415.052 117.407 415.042 117.361 415.042 117.308V104.116C415.042 104.064 415.052 104.018 415.071 103.978C415.098 103.939 415.14 103.906 415.2 103.879C415.265 103.853 415.351 103.833 415.456 103.82C415.562 103.807 415.693 103.8 415.851 103.8C416.016 103.8 416.151 103.807 416.256 103.82C416.361 103.833 416.444 103.853 416.503 103.879C416.562 103.906 416.605 103.939 416.631 103.978C416.658 104.018 416.671 104.064 416.671 104.116V109.439C417.138 108.945 417.609 108.58 418.083 108.343C418.557 108.099 419.034 107.977 419.515 107.977C420.107 107.977 420.604 108.079 421.006 108.283C421.414 108.481 421.743 108.747 421.993 109.083C422.243 109.419 422.421 109.814 422.526 110.268C422.638 110.716 422.694 111.259 422.694 111.897V117.308ZM430.86 109.004C430.86 109.149 430.857 109.271 430.85 109.369C430.844 109.468 430.83 109.547 430.811 109.606C430.791 109.659 430.765 109.702 430.732 109.735C430.705 109.761 430.666 109.774 430.613 109.774C430.56 109.774 430.495 109.761 430.416 109.735C430.343 109.702 430.258 109.672 430.159 109.646C430.067 109.613 429.961 109.583 429.843 109.557C429.724 109.531 429.596 109.518 429.458 109.518C429.293 109.518 429.132 109.551 428.974 109.616C428.816 109.682 428.648 109.791 428.47 109.942C428.299 110.094 428.118 110.294 427.927 110.545C427.736 110.795 427.526 111.101 427.295 111.463V117.308C427.295 117.361 427.282 117.407 427.256 117.447C427.23 117.479 427.187 117.509 427.128 117.535C427.068 117.562 426.986 117.581 426.881 117.595C426.775 117.608 426.64 117.614 426.476 117.614C426.318 117.614 426.186 117.608 426.081 117.595C425.976 117.581 425.89 117.562 425.824 117.535C425.765 117.509 425.722 117.479 425.696 117.447C425.676 117.407 425.666 117.361 425.666 117.308V108.422C425.666 108.369 425.676 108.326 425.696 108.293C425.716 108.254 425.755 108.221 425.814 108.194C425.874 108.162 425.949 108.142 426.041 108.135C426.134 108.122 426.255 108.115 426.407 108.115C426.552 108.115 426.67 108.122 426.762 108.135C426.861 108.142 426.937 108.162 426.989 108.194C427.042 108.221 427.078 108.254 427.098 108.293C427.124 108.326 427.137 108.369 427.137 108.422V109.715C427.381 109.36 427.608 109.07 427.819 108.846C428.036 108.622 428.24 108.448 428.431 108.323C428.622 108.191 428.809 108.102 428.994 108.056C429.185 108.004 429.376 107.977 429.566 107.977C429.652 107.977 429.748 107.984 429.853 107.997C429.965 108.004 430.08 108.02 430.198 108.046C430.317 108.073 430.422 108.102 430.514 108.135C430.613 108.168 430.682 108.201 430.722 108.234C430.761 108.267 430.788 108.3 430.801 108.333C430.814 108.359 430.824 108.395 430.83 108.441C430.844 108.487 430.85 108.557 430.85 108.649C430.857 108.734 430.86 108.853 430.86 109.004ZM434.346 117.308C434.346 117.361 434.332 117.407 434.306 117.447C434.28 117.479 434.237 117.509 434.178 117.535C434.118 117.562 434.036 117.581 433.931 117.595C433.826 117.608 433.691 117.614 433.526 117.614C433.368 117.614 433.236 117.608 433.131 117.595C433.026 117.581 432.94 117.562 432.874 117.535C432.815 117.509 432.772 117.479 432.746 117.447C432.726 117.407 432.716 117.361 432.716 117.308V108.422C432.716 108.376 432.726 108.333 432.746 108.293C432.772 108.254 432.815 108.221 432.874 108.194C432.94 108.168 433.026 108.148 433.131 108.135C433.236 108.122 433.368 108.115 433.526 108.115C433.691 108.115 433.826 108.122 433.931 108.135C434.036 108.148 434.118 108.168 434.178 108.194C434.237 108.221 434.28 108.254 434.306 108.293C434.332 108.333 434.346 108.376 434.346 108.422V117.308ZM434.533 105.42C434.533 105.802 434.461 106.062 434.316 106.2C434.171 106.338 433.905 106.407 433.516 106.407C433.134 106.407 432.871 106.341 432.726 106.21C432.588 106.072 432.519 105.815 432.519 105.44C432.519 105.058 432.591 104.798 432.736 104.66C432.881 104.521 433.148 104.452 433.536 104.452C433.918 104.452 434.178 104.521 434.316 104.66C434.461 104.791 434.533 105.045 434.533 105.42ZM444.644 108.402C444.644 108.428 444.641 108.458 444.634 108.491C444.634 108.517 444.631 108.547 444.625 108.58C444.618 108.612 444.608 108.649 444.595 108.688C444.588 108.728 444.578 108.77 444.565 108.817L441.534 117.259C441.508 117.331 441.471 117.391 441.425 117.437C441.386 117.483 441.323 117.519 441.238 117.545C441.152 117.572 441.044 117.588 440.912 117.595C440.78 117.608 440.616 117.614 440.418 117.614C440.221 117.614 440.056 117.608 439.924 117.595C439.793 117.581 439.684 117.562 439.599 117.535C439.52 117.509 439.457 117.473 439.411 117.427C439.365 117.381 439.329 117.325 439.302 117.259L436.281 108.817C436.255 108.738 436.232 108.668 436.212 108.609C436.199 108.55 436.189 108.507 436.182 108.481C436.182 108.448 436.182 108.422 436.182 108.402C436.182 108.349 436.195 108.303 436.222 108.264C436.248 108.224 436.291 108.194 436.35 108.175C436.416 108.148 436.498 108.132 436.597 108.125C436.702 108.119 436.831 108.115 436.982 108.115C437.173 108.115 437.324 108.122 437.436 108.135C437.555 108.142 437.644 108.158 437.703 108.185C437.769 108.211 437.815 108.244 437.841 108.283C437.874 108.323 437.904 108.372 437.93 108.431L440.438 115.758L440.477 115.877L440.507 115.758L442.985 108.431C442.999 108.372 443.022 108.323 443.055 108.283C443.087 108.244 443.134 108.211 443.193 108.185C443.259 108.158 443.344 108.142 443.45 108.135C443.561 108.122 443.706 108.115 443.884 108.115C444.035 108.115 444.16 108.119 444.259 108.125C444.358 108.132 444.434 108.148 444.486 108.175C444.546 108.201 444.585 108.234 444.605 108.273C444.631 108.306 444.644 108.349 444.644 108.402ZM453.886 112.48C453.886 112.737 453.821 112.921 453.689 113.033C453.564 113.138 453.419 113.191 453.255 113.191H447.429C447.429 113.684 447.478 114.129 447.577 114.524C447.676 114.919 447.84 115.258 448.071 115.541C448.301 115.824 448.601 116.041 448.969 116.193C449.338 116.344 449.789 116.42 450.322 116.42C450.743 116.42 451.118 116.387 451.448 116.321C451.777 116.248 452.06 116.169 452.297 116.084C452.54 115.998 452.738 115.923 452.889 115.857C453.047 115.784 453.166 115.748 453.245 115.748C453.291 115.748 453.33 115.761 453.363 115.788C453.403 115.807 453.432 115.84 453.452 115.886C453.472 115.933 453.485 115.998 453.492 116.084C453.505 116.163 453.511 116.262 453.511 116.38C453.511 116.466 453.508 116.541 453.501 116.607C453.495 116.666 453.485 116.722 453.472 116.775C453.465 116.821 453.449 116.864 453.422 116.903C453.403 116.943 453.373 116.982 453.334 117.022C453.301 117.055 453.195 117.114 453.018 117.2C452.84 117.279 452.609 117.358 452.326 117.437C452.043 117.516 451.714 117.585 451.339 117.644C450.97 117.71 450.575 117.743 450.154 117.743C449.423 117.743 448.782 117.641 448.229 117.437C447.682 117.233 447.221 116.93 446.846 116.528C446.471 116.127 446.188 115.623 445.997 115.018C445.806 114.412 445.711 113.708 445.711 112.904C445.711 112.141 445.809 111.456 446.007 110.851C446.204 110.238 446.487 109.722 446.856 109.3C447.231 108.872 447.682 108.547 448.209 108.323C448.735 108.092 449.325 107.977 449.976 107.977C450.674 107.977 451.267 108.089 451.754 108.313C452.247 108.537 452.652 108.84 452.968 109.221C453.284 109.597 453.515 110.041 453.659 110.554C453.811 111.061 453.886 111.604 453.886 112.184V112.48ZM452.247 111.996C452.267 111.14 452.076 110.469 451.675 109.982C451.28 109.495 450.691 109.251 449.907 109.251C449.506 109.251 449.153 109.327 448.851 109.478C448.548 109.63 448.294 109.83 448.09 110.08C447.886 110.331 447.728 110.624 447.616 110.959C447.504 111.288 447.442 111.634 447.429 111.996H452.247Z" fill="#162867"/>
<circle cx="284.142" cy="112.388" r="1.94444" fill="url(#paint0_linear_2_2)"/>
<circle cx="399.253" cy="112.388" r="1.94444" fill="url(#paint1_linear_2_2)"/>
<defs>
<linearGradient id="paint0_linear_2_2" x1="284.142" y1="110.444" x2="284.142" y2="114.333" gradientUnits="userSpaceOnUse">
<stop stop-color="#162867"/>
<stop offset="1" stop-color="#162867"/>
</linearGradient>
<linearGradient id="paint1_linear_2_2" x1="399.253" y1="110.444" x2="399.253" y2="114.333" gradientUnits="userSpaceOnUse">
<stop stop-color="#162867"/>
<stop offset="1" stop-color="#162867"/>
</linearGradient>
</defs>
</svg>
